<svg id="Layer_1" data-name="Layer 1" xmlns="http://www.w3.org/2000/svg" viewBox="0 0 193.35 206.65"><defs><style>.cls-1{fill:#fff;}</style></defs><title>Magnifier</title><path class="cls-1" d="M174.42,302.36c1.32,1.32,3.29,2,5,2.93,3,1.67,6.66,2.7,8.86,5.09,14.88,16.19,29.5,32.62,44,49.11a12.61,12.61,0,0,1,2.84,6.68c.79,7.62-2.35,12.94-8.7,15.78s-12.27,1.49-17.57-4.35c-13.32-14.69-26.48-29.51-39.66-44.33-3.56-4-6.87-8.13-6.63-14.06.05-1.26-1.07-2.73-2-3.83-2.34-2.83-5-5.39-7.25-8.26-1.73-2.2-3.25-2.11-5.47-.77-12.17,7.36-25.35,10.19-39.61,9.81C74.16,315.28,44,286.05,42,252c-2.65-46.71,35.37-76.36,71.45-75.23C154.3,178,187,214,180.65,257.49,178.8,270.28,173.31,281.6,165,292,168.35,295.74,171.23,299.2,174.42,302.36Zm-5.84-55.31c.12-27.42-21.87-57-56.37-57.36a56.91,56.91,0,0,0-57.33,56.39c-.24,34.38,29.25,58.27,56.34,57.15C142.05,304.62,168.45,276.82,168.58,247.05Z" transform="translate(-41.9 -176.71)"/></svg>