<svg id="Layer_1" data-name="Layer 1" xmlns="http://www.w3.org/2000/svg" viewBox="0 0 320.28 363.33"><defs><style>.cls-1{fill:#f15a29;}</style></defs><title>OrigamiFox</title><polygon class="cls-1" points="6.7 0.89 5.5 62.79 32.27 58.23 6.7 0.89"/><polygon class="cls-1" points="0 220.12 26.77 196.06 14.81 75.87 16.86 75.34 34.16 185.52 69.72 150.6 32.27 58.23 4 68.99 0 220.12"/><polygon class="cls-1" points="125.29 333.8 195.46 333.8 160.69 363.33 125.29 333.8"/><polygon class="cls-1" points="318.98 217.91 292.62 195.05 305.8 73.44 302.46 70.26 286.27 185.21 248.81 150.6 288.18 58.83 315.64 68.83 318.98 217.91"/><polygon class="cls-1" points="312.79 0 288.18 58.83 314.48 62.69 312.79 0"/><path class="cls-1" d="M288.66,168.93l-35.24,85.73,50.17,1.9L238.18,289l-18.42,48.58h-1.9l59.69-166.7L198.49,187l-76.21-15.88,60.33,166.38h-1.9l-20.32-47-65.1-34.61,51.51-.49-37.22-86.51-69.72,86.8,112.9,89.1h94l113.39-90.58ZM192.45,289.56H181.66v-1h10.79Zm0-9.76H179.86v-1.17h12.59Zm0-9.76H178.06V268.7h14.39Zm0-9.76H176.26v-1.5h16.19Zm0-9.76h-18v-1.67h18Zm0-9.76H172.66v-1.84h19.79Zm0-9.76H170.86v-2h21.59Zm15.88-2h21.59v2H208.33Zm0,9.92h19.79v1.84H208.33Zm0,9.93h18v1.67h-18Zm0,9.93h16.19v1.5H208.33Zm0,9.92h14.39V270H208.33Zm0,9.93h12.6v1.17h-12.6ZM201,299h-2l.23-90.6h2Zm7.33-10.45h10.8v1h-10.8Z" transform="translate(-39.86 -18.33)"/></svg>