<?xml version="1.0" encoding="utf-8"?>
<!-- Generator: Adobe Illustrator 23.0.2, SVG Export Plug-In . SVG Version: 6.00 Build 0)  -->
<svg version="1.1" id="Layer_1" xmlns="http://www.w3.org/2000/svg" xmlns:xlink="http://www.w3.org/1999/xlink" x="0px" y="0px"
	 viewBox="0 0 362 345.33" style="enable-background:new 0 0 362 345.33;" xml:space="preserve">
<style type="text/css">
	.st0{fill:#4896AA;}
	.st1{fill:none;stroke:#CE6D0D;stroke-width:6;stroke-linecap:round;stroke-linejoin:round;stroke-dasharray:0,13;}
</style>
<g>
	<path class="st0" d="M222.92,311.51c-15.6,0-28.28-12.69-28.28-28.27V51.06c0-7.45-6.06-13.51-13.51-13.51
		c-7.44,0-13.51,6.06-13.51,13.51v187.25c0,15.59-12.68,28.28-28.28,28.28s-28.28-12.69-28.28-28.28V112.87
		c0-7.45-6.06-13.51-13.51-13.51s-13.51,6.06-13.51,13.51v98.32c0,15.59-12.68,28.28-28.28,28.28s-28.27-12.69-28.27-28.28v-26.67
		c0-4.08,3.31-7.38,7.38-7.38s7.38,3.3,7.38,7.38v26.67c0,7.45,6.06,13.51,13.51,13.51s13.51-6.06,13.51-13.51v-98.32
		c0-15.59,12.68-28.28,28.28-28.28s28.28,12.69,28.28,28.28v125.44c0,7.45,6.06,13.51,13.51,13.51s13.51-6.06,13.51-13.51V51.06
		c0-15.59,12.68-28.28,28.27-28.28c15.6,0,28.28,12.69,28.28,28.28v232.18c0,7.45,6.07,13.51,13.51,13.51s13.51-6.06,13.51-13.51
		V118.15c0-15.59,12.68-28.28,28.27-28.28s28.28,12.69,28.28,28.28v75.12c0,7.45,6.06,13.51,13.51,13.51S320,200.72,320,193.28
		v-11.03c0-4.08,3.31-7.38,7.38-7.38s7.38,3.3,7.38,7.38v11.03c0,15.59-12.68,28.28-28.28,28.28s-28.28-12.69-28.28-28.28v-75.12
		c0-7.45-6.06-13.51-13.51-13.51s-13.51,6.06-13.51,13.51v165.08C251.2,298.82,238.52,311.51,222.92,311.51z"/>
</g>
<line class="st1" x1="140" y1="148.66" x2="140" y2="329.33"/>
<line class="st1" x1="305.33" y1="148.66" x2="305.33" y2="321.67"/>
</svg>
