<svg id="Layer_1" data-name="Layer 1" xmlns="http://www.w3.org/2000/svg" viewBox="0 0 418.9 419.31"><defs><style>.cls-1{fill:#b3b3b3;}</style></defs><title>Sad-Smiley</title><path class="cls-1" d="M511.92,382.59q-.35,4.13-.7,8.25c-1.07,12.17-4.21,23.9-7.86,35.49-10.93,34.65-29.1,64.89-55.42,90.05-26.51,25.35-57.88,42-93.13,51.81-16.58,4.61-33.4,6-50.47,5.6-9.26-.19-18.57.23-27.75-.73a186.07,186.07,0,0,1-26.95-5.1A199.57,199.57,0,0,1,178,533.72c-41.44-31.48-69-72.06-80.85-123.06A154.68,154.68,0,0,1,93,374.52c.08-11.33.06-22.66.48-34,.38-10.35,3-20.36,5.67-30.31,7.49-28.05,20-53.59,38.44-76.1,29.73-36.35,66.71-61.69,112.44-73.65,16.41-4.28,33.05-6.62,50-5.79,12.5.62,25.05,1,37.47,2.43,12.87,1.45,25.26,5.35,37.44,9.74,31.61,11.43,58.33,30.12,81.29,54.49,28.19,29.91,45.45,65.33,53.36,105.46,1,5.21,1.27,10.58,1.87,15.87.14,1.19.27,2.38.4,3.56ZM499,363.68c.34-102.64-85.4-196.39-197.7-195.82C194,168.41,105.77,256.38,106,364.52c.22,111.67,93.56,198.14,199.63,196.43C405.85,559.33,498.2,477.42,499,363.68Z" transform="translate(-93.03 -154.53)"/><path class="cls-1" d="M301.38,388.16c12.28.1,22.59,4.91,31.79,12.52,14.87,12.3,26.21,27.38,34.76,44.6a21.29,21.29,0,0,1,2,7.08c.29,2.95-2.17,4.24-4.43,5.38a4,4,0,0,1-5.16-1.27,79.65,79.65,0,0,1-6.51-8.94c-6.47-10.87-13.79-21.08-23-29.85-5.83-5.57-12.08-10.57-19.53-13.93a20.76,20.76,0,0,0-17.73-.05c-8.74,3.89-15.86,10-22.48,16.69a127.73,127.73,0,0,0-22,30.52,25.9,25.9,0,0,1-3.18,4.77c-2.27,2.68-4.58,3.1-7.37,1.63-3.11-1.62-4.42-4.13-3.46-7.4a35.54,35.54,0,0,1,2.87-6.86c8.05-14.77,17.65-28.4,30.28-39.67,6.67-5.95,13.85-11.22,22.65-13.59C294.29,388.88,297.88,388.68,301.38,388.16Z" transform="translate(-93.03 -154.53)"/><path class="cls-1" d="M446.4,316.32a81.34,81.34,0,0,1-23.53-5.6c-20.86-8-37-21.53-47-41.73a75.34,75.34,0,0,1-3.3-7.61c-1-2.68.75-6.43,3.47-7.94a5.92,5.92,0,0,1,7.43,1.8,55.37,55.37,0,0,1,3.66,5.75c3.93,6.76,7.54,13.78,13.26,19.27,12.12,11.66,26.81,18.42,43.1,22a68.3,68.3,0,0,1,6.82,1.62c3.26,1.09,4.45,3.58,3.84,7.34-.55,3.33-2.36,4.94-5.79,5.13C447.68,316.35,447,316.32,446.4,316.32Z" transform="translate(-93.03 -154.53)"/><path class="cls-1" d="M167.23,316.33c-5.28,0-7.73-1.66-9.11-5.12-.77-1.94.35-5,2.93-6.24a42.66,42.66,0,0,1,9.22-3.13c15.57-3.43,29.3-10.26,40.74-21.48a69.94,69.94,0,0,0,12.34-16.27c1.62-2.92,3.3-5.81,5.08-8.64s4.19-3.46,7.15-2.19,4.95,4.5,4.06,7.36a63.63,63.63,0,0,1-9.28,18.61c-13.63,18.69-32.09,30-54.4,35.36C172.58,315.4,169.15,316,167.23,316.33Z" transform="translate(-93.03 -154.53)"/><path class="cls-1" d="M196.32,327.47c11.54,0,23.08-.1,34.61,0a67.14,67.14,0,0,1,11.21,1.25c3.55.66,4.4,2.1,4.36,5.93,0,3.38-1,4.9-4.44,5.45a86.67,86.67,0,0,1-13.14,1.31c-20.51.13-41,.09-61.53,0a83.17,83.17,0,0,1-10.2-.84c-4.05-.52-5.1-1.82-5.23-5.87,0-.5,0-1,0-1.5.09-3.08,1.62-4.88,4.66-5,10.74-.37,21.49-.64,32.23-.92,2.5-.06,5,0,7.48,0Z" transform="translate(-93.03 -154.53)"/><path class="cls-1" d="M410.62,327.47c11.54,0,23.08-.11,34.61.06a68.62,68.62,0,0,1,11.42,1.29c3.19.59,4.08,2.1,4.11,5.51,0,3.57-.83,5.15-4.11,5.71a85.79,85.79,0,0,1-13.54,1.42q-30.76.21-61.53,0a68.52,68.52,0,0,1-11.85-1.28c-3.08-.56-4-2.77-3.56-7.39a4.58,4.58,0,0,1,4.74-4.51c13.23-.47,26.47-.85,39.7-1.26Z" transform="translate(-93.03 -154.53)"/></svg>