<svg id="Layer_1" data-name="Layer 1" xmlns="http://www.w3.org/2000/svg" viewBox="0 0 225 224.01"><defs><style>.cls-1{fill:#fff;}</style></defs><title>account</title><path class="cls-1" d="M427,425v18c-.37,2.24-.7,4.49-1.1,6.72-8.3,45.64-34.28,76.24-78.27,91.08-7.9,2.66-16.4,3.51-24.63,5.2H306c-2.42-.37-4.83-.77-7.26-1.1a112.26,112.26,0,0,1-92.85-82.56C204.22,456,203.28,449.45,202,443V425c.37-2.25.79-4.5,1.09-6.76,8.3-60.63,66.21-103.89,127.34-95.11a112.18,112.18,0,0,1,92.8,83C424.85,412.31,425.76,418.7,427,425ZM233.4,493.8c8.51-4.73,16.7-9.13,24.74-13.78,8.48-4.9,17-9.74,25.14-15.18,5.35-3.58,5.31-8.24.93-13A46.67,46.67,0,0,1,281,448c-14.28-19.5-14.89-41.1-8.83-63.27,3.77-13.84,13.2-23.15,27.4-26.16a75.83,75.83,0,0,1,22.29-1.34c16.61,1.51,28.8,9.85,34.12,26.24a86.7,86.7,0,0,1,3.62,18c1.84,18.47-2.32,35.34-14.52,49.78-5.38,6.38-5.48,10.22,1.54,14.55,16,9.89,32.54,19.05,48.79,28.47,29.48-37.6,28.43-96.82-12.36-134.61-40-37.05-102.74-35.3-141.43,4.35C204,402.55,206,460,233.4,493.8Zm155,8.66c-2.2-1.47-4.28-3.06-6.54-4.32-7.83-4.37-15.83-8.44-23.56-13-6.86-4-13.61-8.28-20.07-12.91A16.69,16.69,0,0,1,331,459.64c-.45-5.63-.28-10.89,5.26-14.42,1.47-.94,2.52-2.65,3.54-4.15C352.41,422.66,352,403,344.74,383c-3.13-8.59-10.42-13.29-19.29-14.86a71.91,71.91,0,0,0-15.37-1c-16.23.67-25.73,8.89-29.12,24.83a86,86,0,0,0-1.67,10.82c-1.48,17.65,2.93,33.26,16.19,45.73a5.91,5.91,0,0,1,2,3.21c.7,7.71.25,15.36-6.83,20.2-8.34,5.7-17,11-25.66,16.13-8.12,4.81-16.48,9.21-24.87,13.87C279,545.68,350,545.54,388.35,502.46Z" transform="translate(-202 -321.99)"/></svg>