<svg id="Layer_1" data-name="Layer 1" xmlns="http://www.w3.org/2000/svg" viewBox="0 0 225.02 224.77"><defs><style>.cls-1{fill:#fff;}</style></defs><title>close</title><path class="cls-1" d="M258,293v17c-.29,1.27-.68,2.53-.86,3.82-6.5,46.39-31.9,77.74-75.61,94C172.79,411.05,163.2,412,154,414H137c-2.44-.37-4.88-.77-7.33-1.12-61.23-8.68-104.42-66.24-95.53-127.3a112.41,112.41,0,0,1,100.47-95.83c53.08-5,101.7,26.83,117.87,77.57C255.12,275.62,256.2,284.43,258,293ZM242,301.76c.05-53.07-43.06-96.58-95.82-96.71-53.41-.13-97,42.93-97.08,95.94-.1,53.36,43,96.88,96.07,97C198.43,398,241.9,354.84,242,301.76Z" transform="translate(-32.98 -189.23)"/><path class="cls-1" d="M144.28,312.11c-11,11.52-21.71,23.14-32.93,34.28-1.93,1.92-6.07,2.81-8.84,2.29-2-.38-4.78-3.77-4.88-5.93-.13-2.7,1.49-6.12,3.47-8.17,9.48-9.82,19.3-19.32,29.08-28.86a37,37,0,0,1,4.95-3.39c-12.22-12.09-23.33-23.11-34.47-34.09-3.1-3.05-4-6.56-1.94-10.39a6.94,6.94,0,0,1,8.45-3.71,14.65,14.65,0,0,1,5.67,3.79c10.81,10.62,21.51,21.34,32.66,32.45,1.31-1.23,2.61-2.4,3.85-3.63q14.93-14.76,29.84-29.53c4.12-4.06,9-4.44,12.31-1.11,3.6,3.59,3.29,7.86-1,12.26-10.94,11.2-21.91,22.37-34.35,35.08,1.24.69,3.33,1.33,4.71,2.69,9.86,9.7,19.59,19.52,29.32,29.35,4.6,4.64,5,9,1.29,12.61-3.42,3.36-8.31,2.77-12.69-1.59C167.69,335.48,156.62,324.42,144.28,312.11Z" transform="translate(-32.98 -189.23)"/></svg>