<svg xmlns="http://www.w3.org/2000/svg" xmlns:xlink="http://www.w3.org/1999/xlink" viewBox="0 0 350.26 349.75"><defs><style>.cls-1{isolation:isolate;}.cls-105,.cls-118,.cls-124,.cls-130,.cls-142,.cls-144,.cls-150,.cls-154,.cls-156,.cls-162,.cls-166,.cls-173,.cls-179,.cls-192,.cls-2,.cls-23,.cls-38,.cls-45,.cls-59,.cls-61,.cls-67,.cls-71,.cls-74,.cls-81,.cls-95,.cls-97{mix-blend-mode:color-dodge;}.cls-2{fill:url(#radial-gradient);}.cls-3{opacity:0.1;}.cls-199,.cls-3,.cls-4{mix-blend-mode:multiply;}.cls-5{fill:#d1d3d4;}.cls-6{fill:#f1f2f2;}.cls-7{fill:url(#linear-gradient);}.cls-8{fill:url(#linear-gradient-2);}.cls-9{fill:url(#linear-gradient-3);}.cls-10{fill:url(#linear-gradient-4);}.cls-11{fill:url(#linear-gradient-5);}.cls-12{fill:url(#linear-gradient-6);}.cls-13{fill:url(#linear-gradient-7);}.cls-14{fill:url(#linear-gradient-8);}.cls-15{fill:url(#linear-gradient-9);}.cls-16{fill:url(#linear-gradient-10);}.cls-17{fill:url(#linear-gradient-11);}.cls-18{fill:url(#linear-gradient-12);}.cls-19{fill:url(#linear-gradient-13);}.cls-20{fill:url(#linear-gradient-14);}.cls-21{fill:url(#linear-gradient-15);}.cls-22{fill:url(#linear-gradient-16);}.cls-23{fill:url(#radial-gradient-2);}.cls-24{fill:url(#linear-gradient-17);}.cls-25{fill:url(#linear-gradient-18);}.cls-26{fill:url(#linear-gradient-19);}.cls-27{fill:url(#linear-gradient-20);}.cls-28{fill:url(#linear-gradient-21);}.cls-29{fill:url(#linear-gradient-22);}.cls-30{opacity:0.7;fill:url(#linear-gradient-23);}.cls-31{fill:url(#linear-gradient-24);}.cls-32{fill:url(#linear-gradient-25);}.cls-33{fill:url(#linear-gradient-26);}.cls-34{fill:url(#linear-gradient-27);}.cls-35{fill:url(#linear-gradient-28);}.cls-36{fill:url(#linear-gradient-29);}.cls-37{fill:#fff;opacity:0.3;}.cls-38{fill:url(#radial-gradient-3);}.cls-39{fill:url(#linear-gradient-30);}.cls-40{fill:url(#linear-gradient-31);}.cls-41{fill:url(#linear-gradient-32);}.cls-42{fill:url(#linear-gradient-33);}.cls-43{fill:url(#linear-gradient-34);}.cls-44{fill:url(#linear-gradient-35);}.cls-45{fill:url(#radial-gradient-4);}.cls-46{fill:url(#linear-gradient-36);}.cls-47{fill:url(#linear-gradient-37);}.cls-48{fill:url(#linear-gradient-38);}.cls-49{fill:url(#linear-gradient-39);}.cls-50{fill:url(#linear-gradient-40);}.cls-51{fill:url(#linear-gradient-41);}.cls-52{fill:url(#linear-gradient-42);}.cls-53{fill:url(#linear-gradient-43);}.cls-54{fill:url(#linear-gradient-44);}.cls-55{fill:url(#linear-gradient-45);}.cls-56{fill:url(#linear-gradient-46);}.cls-57{fill:url(#linear-gradient-47);}.cls-58{fill:url(#linear-gradient-48);}.cls-59{fill:url(#radial-gradient-5);}.cls-60{fill:url(#linear-gradient-49);}.cls-61{fill:url(#radial-gradient-6);}.cls-62{fill:url(#linear-gradient-50);}.cls-63{fill:url(#linear-gradient-51);}.cls-64{fill:url(#linear-gradient-52);}.cls-65{fill:url(#linear-gradient-53);}.cls-66{fill:url(#linear-gradient-54);}.cls-67{fill:url(#radial-gradient-7);}.cls-68{fill:url(#linear-gradient-55);}.cls-69{fill:url(#linear-gradient-56);}.cls-70{fill:url(#linear-gradient-57);}.cls-71{fill:url(#radial-gradient-8);}.cls-72{fill:url(#linear-gradient-58);}.cls-73{fill:url(#linear-gradient-59);}.cls-74{fill:url(#radial-gradient-9);}.cls-75{fill:url(#linear-gradient-60);}.cls-76{fill:url(#linear-gradient-61);}.cls-77{fill:url(#linear-gradient-62);}.cls-78{fill:url(#linear-gradient-63);}.cls-79{fill:url(#linear-gradient-64);}.cls-80{fill:url(#linear-gradient-65);}.cls-81{fill:url(#radial-gradient-10);}.cls-82{fill:url(#linear-gradient-66);}.cls-83{fill:url(#linear-gradient-67);}.cls-84{fill:url(#linear-gradient-68);}.cls-85{fill:url(#linear-gradient-69);}.cls-86{fill:url(#radial-gradient-11);}.cls-87{fill:url(#linear-gradient-70);}.cls-88{fill:url(#linear-gradient-71);}.cls-89{fill:url(#linear-gradient-72);}.cls-90{fill:url(#linear-gradient-73);}.cls-91{fill:url(#linear-gradient-74);}.cls-92{fill:url(#linear-gradient-75);}.cls-93{fill:url(#linear-gradient-76);}.cls-94{fill:url(#linear-gradient-77);}.cls-95{fill:url(#radial-gradient-12);}.cls-96{fill:url(#linear-gradient-78);}.cls-97{fill:url(#radial-gradient-13);}.cls-98{fill:url(#linear-gradient-79);}.cls-99{fill:url(#linear-gradient-80);}.cls-100{fill:url(#linear-gradient-81);}.cls-101{fill:url(#linear-gradient-82);}.cls-102{fill:url(#linear-gradient-83);}.cls-103{fill:url(#linear-gradient-84);}.cls-104{fill:url(#linear-gradient-85);}.cls-105{fill:url(#radial-gradient-14);}.cls-106{fill:url(#linear-gradient-86);}.cls-107{fill:url(#linear-gradient-87);}.cls-108{fill:url(#linear-gradient-88);}.cls-109{fill:url(#linear-gradient-89);}.cls-110{fill:url(#linear-gradient-90);}.cls-111{fill:url(#linear-gradient-91);}.cls-112{fill:url(#linear-gradient-92);}.cls-113{fill:url(#linear-gradient-93);}.cls-114{fill:url(#linear-gradient-94);}.cls-115{fill:url(#linear-gradient-95);}.cls-116{fill:url(#linear-gradient-96);}.cls-117{fill:url(#linear-gradient-97);}.cls-118{fill:url(#radial-gradient-15);}.cls-119{fill:url(#linear-gradient-98);}.cls-120{fill:url(#linear-gradient-99);}.cls-121{fill:url(#linear-gradient-100);}.cls-122{fill:url(#linear-gradient-101);}.cls-123{fill:url(#linear-gradient-102);}.cls-124{fill:url(#radial-gradient-16);}.cls-125{fill:url(#linear-gradient-103);}.cls-126{fill:url(#linear-gradient-104);}.cls-127{fill:url(#linear-gradient-105);}.cls-128{fill:url(#linear-gradient-106);}.cls-129{fill:url(#linear-gradient-107);}.cls-130{fill:url(#radial-gradient-17);}.cls-131{fill:url(#linear-gradient-108);}.cls-132{fill:url(#linear-gradient-109);}.cls-133{fill:url(#linear-gradient-110);}.cls-134{fill:url(#linear-gradient-111);}.cls-135{fill:url(#linear-gradient-112);}.cls-136{fill:url(#linear-gradient-113);}.cls-137{fill:url(#linear-gradient-114);}.cls-138{fill:url(#radial-gradient-18);}.cls-139{fill:url(#linear-gradient-115);}.cls-140{fill:url(#linear-gradient-116);}.cls-141{fill:url(#linear-gradient-117);}.cls-142{fill:url(#radial-gradient-19);}.cls-143{fill:url(#linear-gradient-118);}.cls-144{fill:url(#radial-gradient-20);}.cls-145{fill:url(#linear-gradient-119);}.cls-146{fill:url(#linear-gradient-120);}.cls-147{fill:url(#linear-gradient-121);}.cls-148{fill:url(#linear-gradient-122);}.cls-149{fill:url(#linear-gradient-123);}.cls-150{fill:url(#radial-gradient-21);}.cls-151{fill:url(#linear-gradient-124);}.cls-152{fill:url(#linear-gradient-125);}.cls-153{fill:url(#linear-gradient-126);}.cls-154{fill:url(#radial-gradient-22);}.cls-155{fill:url(#linear-gradient-127);}.cls-156{fill:url(#radial-gradient-23);}.cls-157{fill:url(#linear-gradient-128);}.cls-158{fill:url(#linear-gradient-129);}.cls-159{fill:url(#linear-gradient-130);}.cls-160{fill:url(#linear-gradient-131);}.cls-161{fill:url(#linear-gradient-132);}.cls-162{fill:url(#radial-gradient-24);}.cls-163{fill:url(#linear-gradient-133);}.cls-164{fill:url(#linear-gradient-134);}.cls-165{fill:url(#linear-gradient-135);}.cls-166{fill:url(#radial-gradient-25);}.cls-167{fill:url(#linear-gradient-136);}.cls-168{fill:url(#linear-gradient-137);}.cls-169{fill:url(#linear-gradient-138);}.cls-170{fill:url(#linear-gradient-139);}.cls-171{fill:url(#linear-gradient-140);}.cls-172{fill:url(#linear-gradient-141);}.cls-173{fill:url(#radial-gradient-26);}.cls-174{fill:url(#linear-gradient-142);}.cls-175{fill:url(#linear-gradient-143);}.cls-176{fill:url(#linear-gradient-144);}.cls-177{fill:url(#linear-gradient-145);}.cls-178{fill:url(#linear-gradient-146);}.cls-179{fill:url(#radial-gradient-27);}.cls-180{fill:url(#linear-gradient-147);}.cls-181{fill:url(#linear-gradient-148);}.cls-182{fill:url(#linear-gradient-149);}.cls-183{fill:url(#linear-gradient-150);}.cls-184{fill:url(#linear-gradient-151);}.cls-185{fill:url(#linear-gradient-152);}.cls-186{fill:url(#linear-gradient-153);}.cls-187{fill:url(#linear-gradient-154);}.cls-188{fill:url(#linear-gradient-155);}.cls-189{fill:url(#linear-gradient-156);}.cls-190{fill:url(#linear-gradient-157);}.cls-191{fill:url(#linear-gradient-158);}.cls-192{fill:url(#radial-gradient-28);}.cls-193{fill:url(#linear-gradient-159);}.cls-194{fill:url(#linear-gradient-160);}.cls-195{fill:url(#linear-gradient-161);}.cls-196{fill:url(#linear-gradient-162);}.cls-197{fill:url(#linear-gradient-163);}.cls-198{fill:url(#linear-gradient-164);}.cls-199{fill:url(#linear-gradient-165);}.cls-200{fill:url(#linear-gradient-166);}.cls-201{fill:url(#linear-gradient-167);}.cls-202{fill:url(#radial-gradient-29);}.cls-203{fill:url(#linear-gradient-168);}.cls-204{fill:url(#linear-gradient-169);}.cls-205{fill:url(#linear-gradient-170);}</style><radialGradient id="radial-gradient" cx="193.83" cy="257.75" r="133.66" gradientUnits="userSpaceOnUse"><stop offset="0" stop-color="#364f87"/><stop offset="0" stop-color="#3a3e87"/><stop offset="0.01" stop-color="#3f2386"/><stop offset="0.02" stop-color="#441086"/><stop offset="0.03" stop-color="#460586"/><stop offset="0.04" stop-color="#470186"/><stop offset="1"/></radialGradient><linearGradient id="linear-gradient" x1="320.15" y1="207.57" x2="336.25" y2="203.96" gradientTransform="matrix(-1, 0, 0, 1, 494.27, -5.89)" gradientUnits="userSpaceOnUse"><stop offset="0.04" stop-color="#271273"/><stop offset="0.29" stop-color="#361d82"/><stop offset="0.8" stop-color="#5d39ab"/><stop offset="0.98" stop-color="#6d45bb"/></linearGradient><linearGradient id="linear-gradient-2" x1="309.89" y1="201.97" x2="344.62" y2="191.57" xlink:href="#linear-gradient"/><linearGradient id="linear-gradient-3" x1="321.32" y1="188.76" x2="316.25" y2="198.43" xlink:href="#linear-gradient"/><linearGradient id="linear-gradient-4" x1="166.38" y1="127.39" x2="247.28" y2="103.17" gradientTransform="matrix(1, 0, 0, 1, 0, 0)" xlink:href="#linear-gradient"/><linearGradient id="linear-gradient-5" x1="122.19" y1="135.56" x2="229.26" y2="111.56" gradientTransform="matrix(1, 0, 0, 1, 0, 0)" xlink:href="#linear-gradient"/><linearGradient id="linear-gradient-6" x1="180.15" y1="46.43" x2="175.94" y2="54.46" gradientTransform="matrix(1, 0, 0, 1, 0, 0)" xlink:href="#linear-gradient"/><linearGradient id="linear-gradient-7" x1="280.63" y1="172.15" x2="336.14" y2="155.53" gradientUnits="userSpaceOnUse"><stop offset="0.04" stop-color="#9d9eb3"/><stop offset="0.58" stop-color="#d4d1d8"/><stop offset="1" stop-color="#eeebf2"/></linearGradient><linearGradient id="linear-gradient-8" x1="54.71" y1="178.54" x2="416.36" y2="97.47" xlink:href="#linear-gradient-7"/><linearGradient id="linear-gradient-9" x1="61.39" y1="177.05" x2="409.39" y2="99.03" gradientUnits="userSpaceOnUse"><stop offset="0" stop-color="#d4d1d8"/><stop offset="1" stop-color="#fff"/></linearGradient><linearGradient id="linear-gradient-10" x1="242.63" y1="76.11" x2="232.4" y2="95.61" xlink:href="#linear-gradient-7"/><linearGradient id="linear-gradient-11" x1="206.31" y1="273.08" x2="222.41" y2="269.48" xlink:href="#linear-gradient"/><linearGradient id="linear-gradient-12" x1="196.04" y1="267.49" x2="230.78" y2="257.09" xlink:href="#linear-gradient"/><linearGradient id="linear-gradient-13" x1="207.48" y1="254.28" x2="202.41" y2="263.94" xlink:href="#linear-gradient"/><linearGradient id="linear-gradient-14" x1="280.22" y1="192.91" x2="361.12" y2="168.69" gradientTransform="matrix(1, 0, 0, 1, 0, 0)" xlink:href="#linear-gradient"/><linearGradient id="linear-gradient-15" x1="236.03" y1="201.08" x2="343.1" y2="177.08" gradientTransform="matrix(1, 0, 0, 1, 0, 0)" xlink:href="#linear-gradient"/><linearGradient id="linear-gradient-16" x1="293.99" y1="111.95" x2="289.78" y2="119.97" gradientTransform="matrix(1, 0, 0, 1, 0, 0)" xlink:href="#linear-gradient"/><radialGradient id="radial-gradient-2" cx="318.51" cy="166.04" r="49.09" gradientUnits="userSpaceOnUse"><stop offset="0" stop-color="#fff"/><stop offset="1"/></radialGradient><linearGradient id="linear-gradient-17" x1="231.55" y1="109.71" x2="231.31" y2="163.36" gradientUnits="userSpaceOnUse"><stop offset="0.01" stop-color="#2af6ff"/><stop offset="1" stop-color="#4e00d4"/></linearGradient><linearGradient id="linear-gradient-18" x1="232.84" y1="119.27" x2="232.75" y2="139.16" xlink:href="#linear-gradient-17"/><linearGradient id="linear-gradient-19" x1="234.48" y1="127.09" x2="229.46" y2="195.52" xlink:href="#linear-gradient-17"/><linearGradient id="linear-gradient-20" x1="230.89" y1="163.62" x2="233.27" y2="204.33" xlink:href="#linear-gradient-17"/><linearGradient id="linear-gradient-21" x1="219.04" y1="108.85" x2="256.66" y2="108.85" gradientUnits="userSpaceOnUse"><stop offset="0.01" stop-color="#dc3daa"/><stop offset="1" stop-color="#4e00d4"/></linearGradient><linearGradient id="linear-gradient-22" x1="222.76" y1="114.76" x2="252.15" y2="114.76" xlink:href="#linear-gradient-21"/><linearGradient id="linear-gradient-23" x1="494.73" y1="99.59" x2="513.75" y2="120.97" gradientUnits="userSpaceOnUse"><stop offset="0.01" stop-color="#dc3daa"/><stop offset="0.51" stop-color="#6b24d6"/><stop offset="1" stop-color="#43e8e1"/></linearGradient><linearGradient id="linear-gradient-24" x1="504.02" y1="107.5" x2="530.5" y2="138.18" xlink:href="#linear-gradient-23"/><linearGradient id="linear-gradient-25" x1="471.22" y1="128.72" x2="521.36" y2="106.92" xlink:href="#linear-gradient-23"/><linearGradient id="linear-gradient-26" x1="500.01" y1="89.81" x2="518.54" y2="110.52" xlink:href="#linear-gradient-23"/><linearGradient id="linear-gradient-27" x1="480.63" y1="69.41" x2="516.43" y2="112.19" xlink:href="#linear-gradient-23"/><linearGradient id="linear-gradient-28" x1="456.57" y1="240.79" x2="469.59" y2="240.79" gradientUnits="userSpaceOnUse"><stop offset="0.09" stop-color="#10054d"/><stop offset="0.89" stop-color="#270656"/></linearGradient><linearGradient id="linear-gradient-29" x1="433.94" y1="276.66" x2="465.27" y2="226.48" gradientUnits="userSpaceOnUse"><stop offset="0.04" stop-color="#6b24d6"/><stop offset="0.29" stop-color="#7733dc"/><stop offset="0.79" stop-color="#975ced"/><stop offset="1" stop-color="#a56ef4"/></linearGradient><radialGradient id="radial-gradient-3" cx="463.07" cy="251.14" r="20.94" xlink:href="#radial-gradient-2"/><linearGradient id="linear-gradient-30" x1="446.55" y1="229.17" x2="472.86" y2="211.38" xlink:href="#linear-gradient-29"/><linearGradient id="linear-gradient-31" x1="139.66" y1="234.56" x2="190.6" y2="219.31" xlink:href="#linear-gradient-29"/><linearGradient id="linear-gradient-32" x1="91.29" y1="239.61" x2="156.83" y2="224.92" xlink:href="#linear-gradient-29"/><linearGradient id="linear-gradient-33" x1="139.66" y1="233.24" x2="190.6" y2="217.98" gradientUnits="userSpaceOnUse"><stop offset="0.04" stop-color="#9f19ab"/><stop offset="0.24" stop-color="#ae25b1"/><stop offset="0.65" stop-color="#d744bf"/><stop offset="1" stop-color="#ff63ce"/></linearGradient><linearGradient id="linear-gradient-34" x1="91.29" y1="238.28" x2="156.83" y2="223.59" xlink:href="#linear-gradient-33"/><linearGradient id="linear-gradient-35" x1="158.97" y1="178.08" x2="132.05" y2="229.4" xlink:href="#linear-gradient-33"/><radialGradient id="radial-gradient-4" cx="149.66" cy="233.98" r="16.1" xlink:href="#radial-gradient-2"/><linearGradient id="linear-gradient-36" x1="468.31" y1="254.5" x2="482.56" y2="254.5" xlink:href="#linear-gradient-28"/><linearGradient id="linear-gradient-37" x1="451.21" y1="242.51" x2="463.62" y2="214.7" xlink:href="#linear-gradient-29"/><linearGradient id="linear-gradient-38" x1="427.46" y1="199.82" x2="399.42" y2="217.76" xlink:href="#linear-gradient-7"/><linearGradient id="linear-gradient-39" x1="1041.16" y1="-201.84" x2="1049.79" y2="-201.84" gradientTransform="translate(-533.56 537.58) rotate(-6.63)" gradientUnits="userSpaceOnUse"><stop offset="0.01" stop-color="#f9b69e"/><stop offset="0.81" stop-color="#fdd7c2"/><stop offset="1" stop-color="#fedfcb"/></linearGradient><linearGradient id="linear-gradient-40" x1="434.68" y1="175.35" x2="449.75" y2="175.35" gradientTransform="matrix(1, 0, 0, 1, 0, 0)" xlink:href="#linear-gradient-39"/><linearGradient id="linear-gradient-41" x1="434.85" y1="183.65" x2="445.8" y2="183.65" xlink:href="#linear-gradient-9"/><linearGradient id="linear-gradient-42" x1="428.18" y1="209.8" x2="456.44" y2="188.83" xlink:href="#linear-gradient-7"/><linearGradient id="linear-gradient-43" x1="164.26" y1="416.56" x2="166.34" y2="416.56" gradientTransform="translate(21.14 -212.56) rotate(2.4)" xlink:href="#linear-gradient-9"/><linearGradient id="linear-gradient-44" x1="436.87" y1="177.2" x2="448.04" y2="167.07" gradientUnits="userSpaceOnUse"><stop offset="0.04" stop-color="#602213"/><stop offset="0.57" stop-color="#6d310e"/><stop offset="1" stop-color="#7a4108"/></linearGradient><linearGradient id="linear-gradient-45" x1="474.7" y1="232.64" x2="451.09" y2="189.86" xlink:href="#linear-gradient-7"/><linearGradient id="linear-gradient-46" x1="440.94" y1="226.98" x2="454.16" y2="223.02" xlink:href="#linear-gradient-33"/><linearGradient id="linear-gradient-47" x1="393.96" y1="228.11" x2="468.27" y2="211.45" xlink:href="#linear-gradient-33"/><linearGradient id="linear-gradient-48" x1="122.98" y1="192.32" x2="119.75" y2="198.48" xlink:href="#linear-gradient-33"/><radialGradient id="radial-gradient-5" cx="123.41" cy="207.41" r="13.43" xlink:href="#radial-gradient-2"/><linearGradient id="linear-gradient-49" x1="465.57" y1="295.5" x2="496.9" y2="245.32" xlink:href="#linear-gradient-29"/><radialGradient id="radial-gradient-6" cx="494.69" cy="269.98" r="20.94" xlink:href="#radial-gradient-2"/><linearGradient id="linear-gradient-50" x1="171.28" y1="253.41" x2="222.23" y2="238.15" xlink:href="#linear-gradient-29"/><linearGradient id="linear-gradient-51" x1="122.92" y1="258.45" x2="188.45" y2="243.76" xlink:href="#linear-gradient-29"/><linearGradient id="linear-gradient-52" x1="171.28" y1="252.08" x2="222.23" y2="236.83" xlink:href="#linear-gradient-33"/><linearGradient id="linear-gradient-53" x1="122.92" y1="257.13" x2="188.45" y2="242.43" xlink:href="#linear-gradient-33"/><linearGradient id="linear-gradient-54" x1="190.6" y1="196.92" x2="163.67" y2="248.24" xlink:href="#linear-gradient-33"/><radialGradient id="radial-gradient-7" cx="181.28" cy="252.83" r="16.1" xlink:href="#radial-gradient-2"/><linearGradient id="linear-gradient-55" x1="472.56" y1="245.82" x2="485.78" y2="241.86" xlink:href="#linear-gradient-33"/><linearGradient id="linear-gradient-56" x1="425.59" y1="246.95" x2="499.89" y2="230.3" xlink:href="#linear-gradient-33"/><linearGradient id="linear-gradient-57" x1="154.6" y1="211.16" x2="151.37" y2="217.32" xlink:href="#linear-gradient-33"/><radialGradient id="radial-gradient-8" cx="155.03" cy="226.25" r="13.43" xlink:href="#radial-gradient-2"/><linearGradient id="linear-gradient-58" x1="518.91" y1="277.68" x2="531.93" y2="277.68" xlink:href="#linear-gradient-28"/><linearGradient id="linear-gradient-59" x1="496.29" y1="313.55" x2="527.62" y2="263.37" xlink:href="#linear-gradient-29"/><radialGradient id="radial-gradient-9" cx="525.42" cy="288.03" r="20.94" xlink:href="#radial-gradient-2"/><linearGradient id="linear-gradient-60" x1="508.9" y1="266.07" x2="535.21" y2="248.27" xlink:href="#linear-gradient-29"/><linearGradient id="linear-gradient-61" x1="202.01" y1="271.46" x2="252.95" y2="256.2" xlink:href="#linear-gradient-29"/><linearGradient id="linear-gradient-62" x1="153.64" y1="276.5" x2="219.18" y2="261.81" xlink:href="#linear-gradient-29"/><linearGradient id="linear-gradient-63" x1="202.01" y1="270.13" x2="252.95" y2="254.88" xlink:href="#linear-gradient-33"/><linearGradient id="linear-gradient-64" x1="153.64" y1="275.18" x2="219.18" y2="260.48" xlink:href="#linear-gradient-33"/><linearGradient id="linear-gradient-65" x1="221.32" y1="214.97" x2="194.39" y2="266.29" xlink:href="#linear-gradient-33"/><radialGradient id="radial-gradient-10" cx="212.01" cy="270.88" r="16.1" xlink:href="#radial-gradient-2"/><linearGradient id="linear-gradient-66" x1="530.36" y1="291.7" x2="544.8" y2="291.7" xlink:href="#linear-gradient-28"/><linearGradient id="linear-gradient-67" x1="513.56" y1="279.4" x2="525.97" y2="251.59" xlink:href="#linear-gradient-29"/><linearGradient id="linear-gradient-68" x1="489.81" y1="236.72" x2="461.77" y2="254.66" gradientUnits="userSpaceOnUse"><stop offset="0.04" stop-color="#138bbd"/><stop offset="0.23" stop-color="#169ac7"/><stop offset="0.59" stop-color="#1fc3df"/><stop offset="1" stop-color="#2af6ff"/></linearGradient><linearGradient id="linear-gradient-69" x1="32.51" y1="607.17" x2="41.14" y2="607.17" gradientTransform="matrix(1, 0.08, -0.08, 1, 550.66, -349.69)" xlink:href="#linear-gradient-39"/><radialGradient id="radial-gradient-11" cx="508.72" cy="212.36" r="10.87" gradientUnits="userSpaceOnUse"><stop offset="0.03" stop-color="#fedfcb"/><stop offset="1" stop-color="#f9b69e"/></radialGradient><linearGradient id="linear-gradient-70" x1="497.2" y1="220.55" x2="508.15" y2="220.55" xlink:href="#linear-gradient-9"/><linearGradient id="linear-gradient-71" x1="490.53" y1="246.69" x2="518.79" y2="225.72" xlink:href="#linear-gradient-68"/><linearGradient id="linear-gradient-72" x1="-705.53" y1="1374.93" x2="-703.45" y2="1374.93" gradientTransform="matrix(0.97, 0.24, -0.24, 0.97, 1234.7, -918.12)" xlink:href="#linear-gradient-9"/><linearGradient id="linear-gradient-73" x1="499.31" y1="214.01" x2="511.27" y2="203.16" gradientUnits="userSpaceOnUse"><stop offset="0.04" stop-color="#ffa98c"/><stop offset="0.4" stop-color="#feb77d"/><stop offset="1" stop-color="#fdd65b"/></linearGradient><linearGradient id="linear-gradient-74" x1="519.44" y1="279.88" x2="519.44" y2="224.75" xlink:href="#linear-gradient-68"/><linearGradient id="linear-gradient-75" x1="503.29" y1="263.87" x2="516.5" y2="259.91" xlink:href="#linear-gradient-33"/><linearGradient id="linear-gradient-76" x1="456.31" y1="265" x2="530.62" y2="248.35" xlink:href="#linear-gradient-33"/><linearGradient id="linear-gradient-77" x1="185.32" y1="229.21" x2="182.09" y2="235.37" xlink:href="#linear-gradient-33"/><radialGradient id="radial-gradient-12" cx="185.76" cy="244.3" r="13.43" xlink:href="#radial-gradient-2"/><linearGradient id="linear-gradient-78" x1="379.41" y1="308.39" x2="410.74" y2="258.2" xlink:href="#linear-gradient-29"/><radialGradient id="radial-gradient-13" cx="408.54" cy="282.86" r="20.94" xlink:href="#radial-gradient-2"/><linearGradient id="linear-gradient-79" x1="402.03" y1="272.51" x2="415.05" y2="272.51" xlink:href="#linear-gradient-28"/><linearGradient id="linear-gradient-80" x1="392.02" y1="260.9" x2="418.33" y2="243.11" xlink:href="#linear-gradient-28"/><linearGradient id="linear-gradient-81" x1="85.13" y1="266.29" x2="136.07" y2="251.03" xlink:href="#linear-gradient-29"/><linearGradient id="linear-gradient-82" x1="36.76" y1="271.33" x2="102.3" y2="256.64" xlink:href="#linear-gradient-29"/><linearGradient id="linear-gradient-83" x1="85.13" y1="264.96" x2="136.07" y2="249.71" xlink:href="#linear-gradient-33"/><linearGradient id="linear-gradient-84" x1="36.76" y1="270.01" x2="102.3" y2="255.32" xlink:href="#linear-gradient-33"/><linearGradient id="linear-gradient-85" x1="104.44" y1="209.8" x2="77.51" y2="261.12" xlink:href="#linear-gradient-33"/><radialGradient id="radial-gradient-14" cx="95.13" cy="265.71" r="16.1" xlink:href="#radial-gradient-2"/><linearGradient id="linear-gradient-86" x1="413.78" y1="286.23" x2="428.03" y2="286.23" xlink:href="#linear-gradient-28"/><linearGradient id="linear-gradient-87" x1="396.08" y1="275.58" x2="408.49" y2="247.77" xlink:href="#linear-gradient-28"/><linearGradient id="linear-gradient-88" x1="-84.4" y1="611.44" x2="-75.77" y2="611.44" gradientTransform="matrix(1, 0.08, -0.08, 1, 550.66, -349.69)" xlink:href="#linear-gradient-39"/><linearGradient id="linear-gradient-89" x1="380.15" y1="207.07" x2="395.22" y2="207.07" gradientTransform="matrix(1, 0, 0, 1, 0, 0)" xlink:href="#linear-gradient-39"/><linearGradient id="linear-gradient-90" x1="380.32" y1="215.38" x2="391.27" y2="215.38" xlink:href="#linear-gradient-9"/><linearGradient id="linear-gradient-91" x1="373.44" y1="242.24" x2="402.28" y2="220.84" xlink:href="#linear-gradient-29"/><linearGradient id="linear-gradient-92" x1="-820.33" y1="1397.48" x2="-818.25" y2="1397.48" gradientTransform="matrix(0.97, 0.24, -0.24, 0.97, 1234.7, -918.12)" xlink:href="#linear-gradient-9"/><linearGradient id="linear-gradient-93" x1="381.41" y1="208.13" x2="392.3" y2="198.25" xlink:href="#linear-gradient-44"/><linearGradient id="linear-gradient-94" x1="406.77" y1="277.02" x2="400.11" y2="216.81" xlink:href="#linear-gradient-29"/><linearGradient id="linear-gradient-95" x1="386.41" y1="258.7" x2="399.62" y2="254.75" xlink:href="#linear-gradient-33"/><linearGradient id="linear-gradient-96" x1="339.43" y1="259.83" x2="413.74" y2="243.18" xlink:href="#linear-gradient-33"/><linearGradient id="linear-gradient-97" x1="68.44" y1="224.04" x2="65.21" y2="230.2" xlink:href="#linear-gradient-33"/><radialGradient id="radial-gradient-15" cx="68.88" cy="239.14" r="13.43" xlink:href="#radial-gradient-2"/><linearGradient id="linear-gradient-98" x1="415.32" y1="281.14" x2="446.08" y2="281.14" gradientTransform="matrix(1, 0, 0, 1, 0, 0)" xlink:href="#linear-gradient-39"/><linearGradient id="linear-gradient-99" x1="1658.45" y1="-434.45" x2="1672.73" y2="-434.45" gradientTransform="translate(-1092.3 1071.02) rotate(-12.05)" xlink:href="#linear-gradient-28"/><linearGradient id="linear-gradient-100" x1="453.24" y1="235" x2="465.01" y2="235" gradientTransform="matrix(1, 0, 0, 1, 0, 0)" xlink:href="#linear-gradient-39"/><linearGradient id="linear-gradient-101" x1="142.51" y1="236.98" x2="146.04" y2="232.77" xlink:href="#linear-gradient-9"/><linearGradient id="linear-gradient-102" x1="411.18" y1="327.08" x2="442.51" y2="276.89" xlink:href="#linear-gradient-29"/><radialGradient id="radial-gradient-16" cx="440.3" cy="301.55" r="20.94" xlink:href="#radial-gradient-2"/><linearGradient id="linear-gradient-103" x1="116.9" y1="284.98" x2="167.84" y2="269.72" xlink:href="#linear-gradient-29"/><linearGradient id="linear-gradient-104" x1="68.53" y1="290.02" x2="134.07" y2="275.33" xlink:href="#linear-gradient-29"/><linearGradient id="linear-gradient-105" x1="116.9" y1="283.65" x2="167.84" y2="268.4" xlink:href="#linear-gradient-33"/><linearGradient id="linear-gradient-106" x1="68.53" y1="288.7" x2="134.07" y2="274.01" xlink:href="#linear-gradient-33"/><linearGradient id="linear-gradient-107" x1="136.21" y1="228.49" x2="109.28" y2="279.81" xlink:href="#linear-gradient-33"/><radialGradient id="radial-gradient-17" cx="126.9" cy="284.4" r="16.1" xlink:href="#radial-gradient-2"/><linearGradient id="linear-gradient-108" x1="421.85" y1="288.53" x2="460.44" y2="288.53" gradientTransform="matrix(1, 0, 0, 1, 0, 0)" xlink:href="#linear-gradient-39"/><linearGradient id="linear-gradient-109" x1="405.22" y1="272.22" x2="442.44" y2="272.22" xlink:href="#linear-gradient-28"/><linearGradient id="linear-gradient-110" x1="1666.71" y1="-424.78" x2="1680.98" y2="-424.78" gradientTransform="translate(-1092.3 1071.02) rotate(-12.05)" xlink:href="#linear-gradient-28"/><linearGradient id="linear-gradient-111" x1="408.34" y1="244.4" x2="386.36" y2="255.39" xlink:href="#linear-gradient-68"/><linearGradient id="linear-gradient-112" x1="412.39" y1="221.4" x2="427.7" y2="221.4" gradientTransform="matrix(1, 0, 0, 1, 0, 0)" xlink:href="#linear-gradient-39"/><linearGradient id="linear-gradient-113" x1="398.9" y1="259.24" x2="430.3" y2="237.49" xlink:href="#linear-gradient-68"/><linearGradient id="linear-gradient-114" x1="432.5" y1="269.76" x2="438.89" y2="237.02" xlink:href="#linear-gradient-68"/><radialGradient id="radial-gradient-18" cx="421.09" cy="-1675.46" r="13.54" gradientTransform="translate(0 2397.3) scale(1 1.3)" gradientUnits="userSpaceOnUse"><stop offset="0" stop-color="#fdd65b"/><stop offset="1" stop-color="#ffa98c"/></radialGradient><linearGradient id="linear-gradient-115" x1="418.17" y1="277.39" x2="431.39" y2="273.44" xlink:href="#linear-gradient-33"/><linearGradient id="linear-gradient-116" x1="371.2" y1="278.52" x2="445.51" y2="261.87" xlink:href="#linear-gradient-33"/><linearGradient id="linear-gradient-117" x1="100.21" y1="242.73" x2="96.98" y2="248.89" xlink:href="#linear-gradient-33"/><radialGradient id="radial-gradient-19" cx="100.64" cy="257.83" r="13.43" xlink:href="#radial-gradient-2"/><linearGradient id="linear-gradient-118" x1="441.75" y1="345.12" x2="473.08" y2="294.94" xlink:href="#linear-gradient-29"/><radialGradient id="radial-gradient-20" cx="470.88" cy="319.6" r="20.94" xlink:href="#radial-gradient-2"/><linearGradient id="linear-gradient-119" x1="147.47" y1="303.03" x2="198.41" y2="287.77" xlink:href="#linear-gradient-29"/><linearGradient id="linear-gradient-120" x1="99.1" y1="308.07" x2="164.64" y2="293.38" xlink:href="#linear-gradient-29"/><linearGradient id="linear-gradient-121" x1="147.47" y1="301.7" x2="198.41" y2="286.45" xlink:href="#linear-gradient-33"/><linearGradient id="linear-gradient-122" x1="99.1" y1="306.75" x2="164.64" y2="292.06" xlink:href="#linear-gradient-33"/><linearGradient id="linear-gradient-123" x1="166.78" y1="246.54" x2="139.86" y2="297.86" xlink:href="#linear-gradient-33"/><radialGradient id="radial-gradient-21" cx="157.47" cy="302.45" r="16.1" xlink:href="#radial-gradient-2"/><linearGradient id="linear-gradient-124" x1="448.75" y1="295.44" x2="461.97" y2="291.48" xlink:href="#linear-gradient-33"/><linearGradient id="linear-gradient-125" x1="401.77" y1="296.57" x2="476.08" y2="279.92" xlink:href="#linear-gradient-33"/><linearGradient id="linear-gradient-126" x1="130.79" y1="260.78" x2="127.56" y2="266.94" xlink:href="#linear-gradient-33"/><radialGradient id="radial-gradient-22" cx="131.22" cy="275.88" r="13.43" xlink:href="#radial-gradient-2"/><linearGradient id="linear-gradient-127" x1="326.48" y1="339.24" x2="357.81" y2="289.06" xlink:href="#linear-gradient-29"/><radialGradient id="radial-gradient-23" cx="355.61" cy="313.72" r="20.94" xlink:href="#radial-gradient-2"/><linearGradient id="linear-gradient-128" x1="32.2" y1="297.15" x2="83.14" y2="281.89" xlink:href="#linear-gradient-29"/><linearGradient id="linear-gradient-129" x1="-16.17" y1="302.19" x2="49.37" y2="287.5" xlink:href="#linear-gradient-29"/><linearGradient id="linear-gradient-130" x1="32.2" y1="295.82" x2="83.14" y2="280.57" xlink:href="#linear-gradient-33"/><linearGradient id="linear-gradient-131" x1="-16.17" y1="300.86" x2="49.37" y2="286.17" xlink:href="#linear-gradient-33"/><linearGradient id="linear-gradient-132" x1="51.51" y1="240.66" x2="24.59" y2="291.98" xlink:href="#linear-gradient-33"/><radialGradient id="radial-gradient-24" cx="42.2" cy="296.57" r="16.1" xlink:href="#radial-gradient-2"/><linearGradient id="linear-gradient-133" x1="333.48" y1="289.56" x2="346.7" y2="285.6" xlink:href="#linear-gradient-33"/><linearGradient id="linear-gradient-134" x1="286.5" y1="290.69" x2="360.81" y2="274.04" xlink:href="#linear-gradient-33"/><linearGradient id="linear-gradient-135" x1="15.52" y1="254.9" x2="12.29" y2="261.06" xlink:href="#linear-gradient-33"/><radialGradient id="radial-gradient-25" cx="15.95" cy="269.99" r="13.43" xlink:href="#radial-gradient-2"/><linearGradient id="linear-gradient-136" x1="357.71" y1="256" x2="373.01" y2="256" gradientTransform="matrix(1, 0, 0, 1, 0, 0)" xlink:href="#linear-gradient-39"/><linearGradient id="linear-gradient-137" x1="388.45" y1="326.67" x2="412.9" y2="299.98" xlink:href="#linear-gradient-29"/><linearGradient id="linear-gradient-138" x1="382.31" y1="333.38" x2="419.61" y2="292.65" gradientTransform="matrix(1, 0, 0, 1, 0, 0)" xlink:href="#linear-gradient-39"/><linearGradient id="linear-gradient-139" x1="372.5" y1="312.06" x2="396.95" y2="285.37" xlink:href="#linear-gradient-29"/><linearGradient id="linear-gradient-140" x1="1598.91" y1="-413.74" x2="1613.19" y2="-413.74" gradientTransform="translate(-1092.3 1071.02) rotate(-12.05)" xlink:href="#linear-gradient-28"/><linearGradient id="linear-gradient-141" x1="358.1" y1="357.93" x2="389.43" y2="307.75" xlink:href="#linear-gradient-29"/><radialGradient id="radial-gradient-26" cx="387.23" cy="332.41" r="20.94" xlink:href="#radial-gradient-2"/><linearGradient id="linear-gradient-142" x1="63.82" y1="315.84" x2="114.76" y2="300.58" xlink:href="#linear-gradient-29"/><linearGradient id="linear-gradient-143" x1="15.45" y1="320.88" x2="80.99" y2="306.19" xlink:href="#linear-gradient-29"/><linearGradient id="linear-gradient-144" x1="63.82" y1="314.51" x2="114.76" y2="299.26" xlink:href="#linear-gradient-33"/><linearGradient id="linear-gradient-145" x1="15.45" y1="319.55" x2="80.99" y2="304.86" xlink:href="#linear-gradient-33"/><linearGradient id="linear-gradient-146" x1="83.13" y1="259.35" x2="56.21" y2="310.67" xlink:href="#linear-gradient-33"/><radialGradient id="radial-gradient-27" cx="73.82" cy="315.26" r="16.1" xlink:href="#radial-gradient-2"/><linearGradient id="linear-gradient-147" x1="352.31" y1="336.23" x2="406.54" y2="336.23" gradientTransform="matrix(1, 0, 0, 1, 0, 0)" xlink:href="#linear-gradient-39"/><linearGradient id="linear-gradient-148" x1="1607.16" y1="-404.06" x2="1621.44" y2="-404.06" gradientTransform="translate(-1092.3 1071.02) rotate(-12.05)" xlink:href="#linear-gradient-28"/><linearGradient id="linear-gradient-149" x1="354.44" y1="277.09" x2="332.46" y2="288.08" xlink:href="#linear-gradient-7"/><linearGradient id="linear-gradient-150" x1="352.31" y1="313.83" x2="406.54" y2="313.83" xlink:href="#linear-gradient-29"/><linearGradient id="linear-gradient-151" x1="348.43" y1="291.01" x2="382.43" y2="267.45" xlink:href="#linear-gradient-7"/><linearGradient id="linear-gradient-152" x1="352.57" y1="264.24" x2="373.18" y2="264.24" xlink:href="#linear-gradient-44"/><linearGradient id="linear-gradient-153" x1="-949.11" y1="1564.62" x2="-940.9" y2="1564.62" gradientTransform="matrix(0.97, 0.26, -0.26, 0.97, 1714.2, -961.16)" xlink:href="#linear-gradient-39"/><linearGradient id="linear-gradient-154" x1="-525.86" y1="1131.82" x2="-520.96" y2="1132.03" gradientTransform="translate(800.11 -722.54) rotate(10.5)" xlink:href="#linear-gradient-9"/><linearGradient id="linear-gradient-155" x1="372.89" y1="314.25" x2="383.11" y2="264.93" xlink:href="#linear-gradient-7"/><linearGradient id="linear-gradient-156" x1="365.1" y1="308.25" x2="378.32" y2="304.29" xlink:href="#linear-gradient-33"/><linearGradient id="linear-gradient-157" x1="318.12" y1="309.38" x2="392.43" y2="292.73" xlink:href="#linear-gradient-33"/><linearGradient id="linear-gradient-158" x1="47.14" y1="273.59" x2="43.91" y2="279.75" xlink:href="#linear-gradient-33"/><radialGradient id="radial-gradient-28" cx="47.57" cy="288.68" r="13.43" xlink:href="#radial-gradient-2"/><linearGradient id="linear-gradient-159" x1="590.11" y1="290.76" x2="581.99" y2="285.09" xlink:href="#linear-gradient-28"/><linearGradient id="linear-gradient-160" x1="614.52" y1="298.39" x2="604.82" y2="293.38" xlink:href="#linear-gradient-28"/><linearGradient id="linear-gradient-161" x1="598.34" y1="217.77" x2="600.28" y2="308.85" xlink:href="#linear-gradient-29"/><linearGradient id="linear-gradient-162" x1="558.54" y1="538.59" x2="570.12" y2="538.59" gradientTransform="matrix(1, 0.09, 0, 1, 0, -440.18)" xlink:href="#linear-gradient-39"/><linearGradient id="linear-gradient-163" x1="593.03" y1="185.83" x2="563.97" y2="147.45" xlink:href="#linear-gradient-29"/><linearGradient id="linear-gradient-164" x1="589.05" y1="221.61" x2="609.31" y2="179.47" xlink:href="#linear-gradient-9"/><linearGradient id="linear-gradient-165" x1="289.76" y1="185.88" x2="289.76" y2="178.85" gradientUnits="userSpaceOnUse"><stop offset="0" stop-color="#fff"/><stop offset="1" stop-color="#bcbec0"/></linearGradient><linearGradient id="linear-gradient-166" x1="289.97" y1="195.76" x2="284.19" y2="194.64" xlink:href="#linear-gradient-28"/><linearGradient id="linear-gradient-167" x1="572.59" y1="201.32" x2="622" y2="201.32" xlink:href="#linear-gradient-29"/><radialGradient id="radial-gradient-29" cx="593.82" cy="-1189.96" r="12.55" gradientTransform="translate(0 1598.2) scale(1 1.2)" xlink:href="#radial-gradient-11"/><linearGradient id="linear-gradient-168" x1="607.59" y1="169.71" x2="589.94" y2="163.88" xlink:href="#linear-gradient-44"/><linearGradient id="linear-gradient-169" x1="613.71" y1="229.07" x2="605.47" y2="225.07" gradientTransform="matrix(1, 0, 0, 1, 0, 0)" xlink:href="#linear-gradient-39"/><linearGradient id="linear-gradient-170" x1="626.59" y1="241.09" x2="609.45" y2="183.03" xlink:href="#linear-gradient-29"/></defs><title>Training</title><g class="cls-1"><g id="Layer_1" data-name="Layer 1"><polygon class="cls-2" points="132.16 0 132.16 156.49 350.26 282.36 350.26 125.79 132.16 0"/><polygon class="cls-3" points="178.89 197.92 284.44 258.23 289.53 255.23 183.98 194.94 178.89 197.92"/><g class="cls-4"><polygon class="cls-5" points="186.24 187.94 190.01 190.13 190.01 51.61 186.24 49.43 186.24 187.94"/><polygon class="cls-6" points="300.08 114.95 300.08 122.18 190.02 58.31 190.02 147.5 300.08 211.22 300.08 253.46 303.85 255.65 303.85 117.13 300.08 114.95"/></g><polygon class="cls-7" points="168.11 198.85 168.11 203.12 164.38 200.98 164.38 196.71 168.11 198.85"/><polygon class="cls-8" points="168.1 198.85 168.1 203.12 190.4 190.23 190.4 185.97 168.1 198.85"/><polygon class="cls-9" points="190.4 185.97 168.1 198.85 164.38 196.71 186.71 183.82 190.4 185.97"/><polygon class="cls-10" points="176.44 55.64 176.44 194.17 180.24 191.98 180.24 53.45 176.44 55.64"/><polygon class="cls-11" points="176.45 55.64 176.45 194.17 172.68 191.98 172.68 53.47 176.45 55.64"/><polygon class="cls-12" points="172.68 53.47 176.45 55.64 180.24 53.45 176.45 51.27 172.68 53.47"/><polygon class="cls-13" points="286.77 126.38 286.77 215.42 290.91 213.16 290.91 123.97 286.77 126.38"/><polygon class="cls-14" points="286.8 126.38 286.8 215.42 176.46 151.54 176.46 62.35 286.8 126.38"/><polygon class="cls-15" points="178.4 150.42 178.4 65.71 284.86 127.5 284.86 212.06 178.4 150.42"/><polygon class="cls-16" points="176.46 62.35 286.8 126.38 290.91 123.97 180.53 59.99 176.46 62.35"/><polygon class="cls-17" points="281.95 264.37 281.95 268.64 278.22 266.5 278.22 262.23 281.95 264.37"/><polygon class="cls-18" points="281.94 264.37 281.94 268.64 304.24 255.75 304.24 251.49 281.94 264.37"/><polygon class="cls-19" points="304.24 251.49 281.94 264.37 278.22 262.23 300.55 249.34 304.24 251.49"/><polygon class="cls-20" points="290.28 121.16 290.28 259.69 294.08 257.5 294.08 118.97 290.28 121.16"/><polygon class="cls-21" points="290.29 121.16 290.29 259.69 286.52 257.5 286.52 118.98 290.29 121.16"/><polygon class="cls-22" points="286.52 118.98 290.29 121.16 294.08 118.97 290.29 116.78 286.52 118.98"/><polygon class="cls-23" points="289.57 120.84 289.57 259.14 290.29 259.69 290.29 121.33 289.57 120.84"/><polygon class="cls-24" points="184.6 133.59 184.6 147.27 277.97 201.18 277.97 144.56 256.2 151.22 238.59 141.89 224.59 144.29 216.43 132.21 198 135.72 184.6 133.59"/><polygon class="cls-25" points="281.1 130.75 272.01 131.84 272.44 133.27 256.25 138.22 238.67 128.91 224.81 131.28 216.65 119.19 198 122.75 184.68 120.64 184.53 121.6 198.01 123.73 216.2 120.27 224.36 132.34 238.51 129.93 255.97 139.17 256.15 139.27 272.72 134.2 273.35 136.32 281.1 130.75"/><polygon class="cls-26" points="184.6 140.11 184.6 147.27 277.97 201.18 277.97 181.32 262.06 162.26 252.96 166.84 242.14 150.37 227.31 152.18 219.33 141.65 203.86 144.56 184.6 140.11"/><polygon class="cls-27" points="184.6 144.79 184.6 147.27 277.97 201.18 277.97 193.67 271.27 182.3 259.55 185.01 242.8 163.49 226.06 160.93 220.19 152.41 202.61 152.53 184.6 144.79"/><polygon class="cls-28" points="256.66 118.19 219.04 96.45 219.04 99.51 256.66 121.26 256.66 118.19"/><polygon class="cls-29" points="252.15 121.72 222.76 104.74 222.76 107.8 252.15 124.79 252.15 121.72"/><path class="cls-30" d="M507.06,105.57l4.24,15.81c-6.44-1-13.55-8.94-15.89-17.67a17.45,17.45,0,0,1-.56-7.66Z" transform="translate(-308.89 -5.89)"/><path class="cls-31" d="M507.06,105.57l10.73,13.31a6.09,6.09,0,0,1-6.49,2.5Z" transform="translate(-308.89 -5.89)"/><path class="cls-32" d="M507.06,105.57l8-6.3c4.66,7.18,5.81,15.32,2.77,19.61Z" transform="translate(-308.89 -5.89)"/><path class="cls-33" d="M507.06,105.57V91.35a23.56,23.56,0,0,1,8,7.92Z" transform="translate(-308.89 -5.89)"/><path class="cls-34" d="M507.06,105.57l-12.21-9.52c1.06-6.26,6.13-8.21,12.21-4.7Z" transform="translate(-308.89 -5.89)"/><path class="cls-35" d="M456.63,239.78c.06,1.25-.81,5.3,2.31,4.61s5-2.55,7.09-2.68,3.67-1.3,3.55-2.49-1.74-1.24-3.92-1a7.24,7.24,0,0,1-4.24-1.12Z" transform="translate(-308.89 -5.89)"/><polygon class="cls-3" points="115.01 253.56 137.05 266.42 162.85 251.44 140.8 238.61 115.01 253.56"/><path class="cls-36" d="M445.4,274.37a4.92,4.92,0,0,1-2.48-.67l-20-11.62a2.81,2.81,0,0,1,0-4.9l19.5-10.92v-10.8a1.06,1.06,0,0,1,2.12,0v11.43a1.07,1.07,0,0,1-.55.93L424,259a.71.71,0,0,0-.36.6.7.7,0,0,0,.35.61l20,11.63a2.86,2.86,0,0,0,2.86,0l17.33-10.14V232.54a1.06,1.06,0,1,1,2.12,0v29.79a1.07,1.07,0,0,1-.52.92l-17.86,10.44A5,5,0,0,1,445.4,274.37Z" transform="translate(-308.89 -5.89)"/><path class="cls-37" d="M445.23,273.48a4.27,4.27,0,0,1-2.13-.57l-20-11.62a2.11,2.11,0,0,1,0-3.68L443,246.5V235.28a.36.36,0,1,1,.71,0v11.43a.37.37,0,0,1-.18.31l-20.05,11.21a1.43,1.43,0,0,0-.72,1.22,1.39,1.39,0,0,0,.7,1.22l20,11.63a3.56,3.56,0,0,0,1.78.47,3.51,3.51,0,0,0,1.79-.48L464.7,262V232.36a.36.36,0,0,1,.71,0v29.79a.38.38,0,0,1-.17.31L447.38,272.9A4.25,4.25,0,0,1,445.23,273.48Z" transform="translate(-308.89 -5.89)"/><path class="cls-38" d="M445.14,273.08a4,4,0,0,1-2-.53l-20-11.63a1.78,1.78,0,0,1-.91-1.59,1.84,1.84,0,0,1,.94-1.59l20-11.19V235.16a.08.08,0,0,1,.07-.07.08.08,0,0,1,.08.07v11.43a.07.07,0,0,1,0,.06l-20,11.22a1.68,1.68,0,0,0,0,2.93l20,11.62a3.82,3.82,0,0,0,1.92.52,3.74,3.74,0,0,0,1.93-.53L464.9,262V232.24a.07.07,0,0,1,.14,0V262l-17.89,10.51A4,4,0,0,1,445.14,273.08Z" transform="translate(-308.89 -5.89)"/><path class="cls-39" d="M440.64,214.7c2.92-.37,14.44-2.12,15.43.44s2.24,9.21,3.05,13.19a51.92,51.92,0,0,0,2.95,8.82l-5.93,3.46s-4.42-12.78-4.8-13.46-11.7-3.74-11.7-3.74Z" transform="translate(-308.89 -5.89)"/><polygon class="cls-40" points="135.15 238.22 135.15 240.39 159.23 226.46 159.23 224.23 135.15 238.22"/><polygon class="cls-41" points="135.16 238.22 135.16 240.39 111.56 226.68 111.56 224.45 135.16 238.22"/><polygon class="cls-42" points="135.15 236.9 135.15 239.06 159.23 225.13 159.23 222.9 135.15 236.9"/><polygon class="cls-43" points="135.16 236.9 135.16 239.06 111.56 225.36 111.56 223.13 135.16 236.9"/><polygon class="cls-44" points="111.56 223.13 135.16 236.9 159.23 222.9 135.61 209.16 111.56 223.13"/><polygon class="cls-45" points="135 236.28 138.03 235.59 159.23 222.9 135 236.28"/><path class="cls-46" d="M470.24,251.72s-2.05,2.49-1.93,4.23,2.68,1.68,4.36,1.5,5.48.37,7-.13,3.18-1.55,2.8-2.8-2.24-.56-4-1.18a5.33,5.33,0,0,1-2.55-1.87Z" transform="translate(-308.89 -5.89)"/><path class="cls-47" d="M442.94,220.43c-1.87.18-10.77-1.5-10.77-1.5s-.68,8.22,3.18,11.77a16.1,16.1,0,0,0,13.13,4.23c4.42-.62,23.52-1.16,23.52-1.16s-.84,7.26-1.23,9.61c-.59,3.66-1.32,9.05-1.32,9.05a27.69,27.69,0,0,0,4.65.3c2.49-.06,2.27-.39,2.27-.39s3.27-10.35,4-12.52c1.38-4.15,3.65-8.81,2.9-11.18s-2.41-4.54-7.47-4.85c-4.39-.27-24.7-5.28-24.7-5.28Z" transform="translate(-308.89 -5.89)"/><path class="cls-48" d="M426.57,185c-2.18,1-4.23,6.1-6,10.08s-6.1,9.09-2.92,11.46,18.17,3.36,18.17,3.36l-.31-3.86-10.64-4s5.41-5.54,5.85-6.17S428.56,184.14,426.57,185Z" transform="translate(-308.89 -5.89)"/><path class="cls-49" d="M477.86,214.45a9.46,9.46,0,0,0,2.23-.45,9.66,9.66,0,0,1,3.67-.62c.91.15,2.39.93,2.09,3.25s-1.29,2.64-3,2.45-5.35-.35-5.35-.35Z" transform="translate(-308.89 -5.89)"/><path class="cls-50" d="M435,170.07c1.37-5.1,8.84-7.4,12.51-2.42s2.12,11.95.63,12.63-2.31-.62-2.81,1.31a7.74,7.74,0,0,0,.5,4.23L435,183.14s1.74-2.24,1.56-3.79S433.85,174.25,435,170.07Z" transform="translate(-308.89 -5.89)"/><path class="cls-51" d="M435.55,181.17a16.31,16.31,0,0,0,5,2.29,8.45,8.45,0,0,0,4.61,0l.62,2.61a15.28,15.28,0,0,1-6.66-.87c-3.55-1.31-4.29-2.49-4.29-2.49Z" transform="translate(-308.89 -5.89)"/><path class="cls-52" d="M434.85,182.21a5.11,5.11,0,0,1-3.74,1.49c-2.24-.12-6.84.13-6.35,5.17s5.79,18.11,6.48,21.1.5,10.08.5,10.08,7.09,2.56,13.69,1.44,6.35-3.68,6.35-3.68-.12-22-.68-23.79-1.47-2.54-3-4c-1.23-1.21-2.62-5.41-2.62-5.41a11.4,11.4,0,0,1-5.35-.13A48.54,48.54,0,0,1,434.85,182.21Z" transform="translate(-308.89 -5.89)"/><polygon class="cls-53" points="168.16 208.06 169.92 208.01 169.77 213.17 167.7 213.02 168.16 208.06"/><path class="cls-54" d="M446,175.67a1.13,1.13,0,0,0-1.56.69c-.37,1.18-.43,2.74.13,3.36l.56.62A6.74,6.74,0,0,1,441,181.4a8.72,8.72,0,0,1-5.54-3.11c-1.12-1.62-2.5-7.23.19-10.46,2.83-3.41,6.77-4.27,10.27-2.74s6.67,5,2.05,6.23C444.72,172.2,446,175.67,446,175.67Z" transform="translate(-308.89 -5.89)"/><path class="cls-3" d="M451.78,217.81s-.12-22-.68-23.79-8.24-1.64-8.48,2.88c-.19,3.67,1.33,15.92,3.2,24.51C452,220.25,451.78,217.81,451.78,217.81Z" transform="translate(-308.89 -5.89)"/><path class="cls-55" d="M446,191.74c-3.59,1.42-5.75,5.55.17,12.47s11.08,13.95,14.77,14.61,16.75.2,16.75.2l-.09-5.3s-11.86.26-14.45-2.5-6.22-8.2-8.11-11.11S451.21,189.69,446,191.74Z" transform="translate(-308.89 -5.89)"/><path class="cls-56" d="M444.09,219.56,441.73,210,440,211l2.36,9.51a59.16,59.16,0,0,1,1.72,14.14v8.12l1.76-1v-8.24A58.69,58.69,0,0,0,444.09,219.56Z" transform="translate(-308.89 -5.89)"/><path class="cls-57" d="M440,211l-23.63-13.84,2.36,9.6a58.69,58.69,0,0,1,1.72,14.09V229l23.63,13.77v-8.12a58.69,58.69,0,0,0-1.73-14.15Z" transform="translate(-308.89 -5.89)"/><polygon class="cls-58" points="107.46 191.29 131.09 205.13 132.85 204.1 109.2 190.29 107.46 191.29"/><polygon class="cls-59" points="107.46 191.29 131.6 204.72 134.25 218.22 130.75 205.15 107.46 191.29"/><polygon class="cls-3" points="146.64 272.41 168.67 285.26 194.47 270.29 172.42 257.45 146.64 272.41"/><path class="cls-60" d="M477,293.21a5,5,0,0,1-2.49-.66l-20-11.63a2.82,2.82,0,0,1,.05-4.9l19.49-10.91V254.3a1.07,1.07,0,0,1,2.13,0v11.43a1.06,1.06,0,0,1-.55.93l-20,11.21a.7.7,0,0,0,0,1.22l20,11.62a2.82,2.82,0,0,0,2.85,0l17.34-10.13V251.38a1.06,1.06,0,0,1,2.12,0v29.8a1.07,1.07,0,0,1-.52.91l-17.86,10.44A4.88,4.88,0,0,1,477,293.21Z" transform="translate(-308.89 -5.89)"/><path class="cls-37" d="M476.86,292.33a4.24,4.24,0,0,1-2.14-.58l-20-11.62a2.11,2.11,0,0,1,0-3.67l19.86-11.12V254.12a.35.35,0,0,1,.35-.35.35.35,0,0,1,.35.35v11.43a.35.35,0,0,1-.18.31l-20,11.22a1.37,1.37,0,0,0-.72,1.21,1.39,1.39,0,0,0,.7,1.23l20,11.62a3.53,3.53,0,0,0,3.57,0l17.68-10.34V251.2a.36.36,0,0,1,.71,0V281a.35.35,0,0,1-.18.3L479,291.74A4.29,4.29,0,0,1,476.86,292.33Z" transform="translate(-308.89 -5.89)"/><path class="cls-61" d="M476.77,291.92a4,4,0,0,1-2-.53l-20-11.62a1.8,1.8,0,0,1-.91-1.6,1.77,1.77,0,0,1,.94-1.58l20-11.2V254a.07.07,0,0,1,.14,0v11.43a.09.09,0,0,1,0,.07l-20.05,11.21a1.67,1.67,0,0,0-.86,1.46,1.64,1.64,0,0,0,.84,1.47l20,11.63a3.78,3.78,0,0,0,1.92.51,3.83,3.83,0,0,0,1.93-.52l17.82-10.42V251.09a.08.08,0,0,1,.07-.07.08.08,0,0,1,.08.07v29.79l-17.9,10.5A3.9,3.9,0,0,1,476.77,291.92Z" transform="translate(-308.89 -5.89)"/><polygon class="cls-62" points="166.77 257.07 166.77 259.23 190.86 245.3 190.86 243.07 166.77 257.07"/><polygon class="cls-63" points="166.78 257.07 166.78 259.23 143.18 245.53 143.18 243.3 166.78 257.07"/><polygon class="cls-64" points="166.77 255.74 166.77 257.91 190.86 243.98 190.86 241.75 166.77 255.74"/><polygon class="cls-65" points="166.78 255.74 166.78 257.91 143.18 244.2 143.18 241.97 166.78 255.74"/><polygon class="cls-66" points="143.18 241.97 166.78 255.74 190.86 241.75 167.24 228 143.18 241.97"/><polygon class="cls-67" points="166.62 255.12 169.65 254.43 190.86 241.75 166.62 255.12"/><path class="cls-68" d="M475.72,238.4l-2.36-9.56-1.76,1,2.35,9.52a58.55,58.55,0,0,1,1.73,14.14v8.12l1.76-1v-8.24A58.78,58.78,0,0,0,475.72,238.4Z" transform="translate(-308.89 -5.89)"/><path class="cls-69" d="M471.61,229.86,448,216l2.37,9.61a58.66,58.66,0,0,1,1.71,14.08v8.15l23.64,13.78v-8.13A58.55,58.55,0,0,0,474,239.37Z" transform="translate(-308.89 -5.89)"/><polygon class="cls-70" points="139.09 210.14 162.72 223.98 164.47 222.95 140.82 209.13 139.09 210.14"/><polygon class="cls-71" points="139.09 210.14 163.22 223.57 165.88 237.06 162.37 223.99 139.09 210.14"/><path class="cls-72" d="M519,276.68c.06,1.24-.81,5.29,2.3,4.6s5.05-2.55,7.1-2.67,3.67-1.31,3.55-2.49-1.74-1.25-3.92-1a7.24,7.24,0,0,1-4.24-1.12Z" transform="translate(-308.89 -5.89)"/><polygon class="cls-3" points="177.36 290.45 199.4 303.31 225.2 288.34 203.15 275.5 177.36 290.45"/><path class="cls-73" d="M507.75,311.26a4.86,4.86,0,0,1-2.48-.67l-20-11.62a2.81,2.81,0,0,1,0-4.9l19.5-10.91V272.35a1.06,1.06,0,0,1,2.12,0v11.43a1.06,1.06,0,0,1-.55.93l-20,11.21a.72.72,0,0,0-.36.61.69.69,0,0,0,.35.61l20,11.62a2.84,2.84,0,0,0,2.86,0l17.33-10.13V269.43a1.06,1.06,0,1,1,2.12,0v29.8a1.07,1.07,0,0,1-.52.91l-17.86,10.44A4.88,4.88,0,0,1,507.75,311.26Z" transform="translate(-308.89 -5.89)"/><path class="cls-37" d="M507.58,310.38a4.18,4.18,0,0,1-2.13-.58l-20-11.62a2.1,2.1,0,0,1,0-3.67l19.86-11.12V272.17a.36.36,0,0,1,.71,0V283.6a.34.34,0,0,1-.19.31l-20,11.22a1.4,1.4,0,0,0-.72,1.21,1.41,1.41,0,0,0,.7,1.23l20,11.62a3.57,3.57,0,0,0,1.78.48,3.52,3.52,0,0,0,1.79-.49l17.68-10.34V269.25a.36.36,0,0,1,.71,0V299a.37.37,0,0,1-.17.31l-17.86,10.44A4.26,4.26,0,0,1,507.58,310.38Z" transform="translate(-308.89 -5.89)"/><path class="cls-74" d="M507.49,310a4,4,0,0,1-2-.53l-20-11.62a1.83,1.83,0,0,1,0-3.18l20-11.2V272.05a.08.08,0,0,1,.07-.07.07.07,0,0,1,.07.07v11.43a.09.09,0,0,1,0,.07l-20,11.21a1.68,1.68,0,0,0-.87,1.46,1.66,1.66,0,0,0,.84,1.47l20,11.63a3.91,3.91,0,0,0,1.92.51,3.83,3.83,0,0,0,1.93-.52l17.83-10.42V269.14a.07.07,0,1,1,.14,0v29.79l-17.89,10.5A3.93,3.93,0,0,1,507.49,310Z" transform="translate(-308.89 -5.89)"/><path class="cls-75" d="M503,251.59c2.92-.37,14.44-2.11,15.43.44s2.24,9.21,3.05,13.2a52,52,0,0,0,2.95,8.81l-5.93,3.46s-4.43-12.77-4.8-13.46-11.7-3.73-11.7-3.73Z" transform="translate(-308.89 -5.89)"/><polygon class="cls-76" points="197.5 275.12 197.5 277.28 221.58 263.35 221.58 261.12 197.5 275.12"/><polygon class="cls-77" points="197.51 275.12 197.51 277.28 173.9 263.58 173.9 261.35 197.51 275.12"/><polygon class="cls-78" points="197.5 273.79 197.5 275.95 221.58 262.03 221.58 259.8 197.5 273.79"/><polygon class="cls-79" points="197.51 273.79 197.51 275.95 173.9 262.25 173.9 260.02 197.51 273.79"/><polygon class="cls-80" points="173.9 260.02 197.51 273.79 221.58 259.8 197.96 246.05 173.9 260.02"/><polygon class="cls-81" points="197.35 273.17 200.38 272.48 221.58 259.8 197.35 273.17"/><path class="cls-82" d="M532.29,288.91s-2,2.49-1.93,4.23,2.68,1.69,4.36,1.5,5.41,0,7-.13c2-.2,3.7-1.32,2.8-2.8-.67-1.11-2.24-.56-4-1.18a5.33,5.33,0,0,1-2.55-1.87Z" transform="translate(-308.89 -5.89)"/><path class="cls-83" d="M505.29,257.32c-1.87.19-10.77-1.49-10.77-1.49s-.68,8.21,3.17,11.76a16.06,16.06,0,0,0,13.14,4.23c4.42-.62,24.22-1.16,24.22-1.16s-1.54,7.26-1.93,9.61c-.59,3.66-1.32,9.06-1.32,9.06a27.69,27.69,0,0,0,4.65.3c2.49-.07,2.27-.4,2.27-.4s3.27-10.35,4-12.52c1.38-4.15,3.65-8.81,2.9-11.17s-2.41-4.55-7.47-4.86c-4.39-.27-24.71-5.28-24.71-5.28Z" transform="translate(-308.89 -5.89)"/><path class="cls-3" d="M535.88,268.28S513.3,268,508.67,267c-2.64-.61-3.76-6.17-4-9.64-2.64-.08-10.19-1.5-10.19-1.5s-.68,8.21,3.17,11.76a16.06,16.06,0,0,0,13.14,4.23c4.42-.62,24.22-1.16,24.22-1.16Z" transform="translate(-308.89 -5.89)"/><path class="cls-84" d="M488.92,221.9c-2.18,1-4.23,6.1-6,10.09s-6.1,9.09-2.92,11.45,18.17,3.36,18.17,3.36l-.31-3.86-10.64-4s5.41-5.54,5.85-6.16S490.91,221,488.92,221.9Z" transform="translate(-308.89 -5.89)"/><path class="cls-85" d="M535.14,255.82a9.91,9.91,0,0,0,2.28,0,9.61,9.61,0,0,1,3.72.11,2.61,2.61,0,0,1,1.41,3.59c-.75,2.22-1.78,2.34-3.38,1.83S534,260,534,260Z" transform="translate(-308.89 -5.89)"/><path class="cls-86" d="M497.32,207c1.37-5.11,8.84-7.41,12.51-2.43s2.12,12,.62,12.63-2.3-.62-2.8,1.31a7.74,7.74,0,0,0,.5,4.23L497.32,220s1.74-2.24,1.56-3.8S496.2,211.14,497.32,207Z" transform="translate(-308.89 -5.89)"/><path class="cls-87" d="M497.9,218.06a16.31,16.31,0,0,0,5,2.29,8.45,8.45,0,0,0,4.61,0l.62,2.61a15.1,15.1,0,0,1-6.66-.87c-3.55-1.31-4.29-2.49-4.29-2.49Z" transform="translate(-308.89 -5.89)"/><path class="cls-88" d="M497.2,219.1a5.14,5.14,0,0,1-3.74,1.5c-2.24-.13-6.84.12-6.35,5.16s5.79,18.12,6.48,21.1.49,10.09.49,10.09,7.1,2.55,13.7,1.43,6.35-3.67,6.35-3.67-.12-22-.68-23.79-1.47-2.55-3-4c-1.23-1.21-2.62-5.41-2.62-5.41a11.4,11.4,0,0,1-5.35-.13A46.44,46.44,0,0,1,497.2,219.1Z" transform="translate(-308.89 -5.89)"/><polygon class="cls-89" points="225.55 249.28 227.29 249.57 226.13 254.61 224.13 254.06 225.55 249.28"/><path class="cls-90" d="M508.34,212.57a1.12,1.12,0,0,0-1.56.68c-.37,1.19-.43,2.74.13,3.36l.56.63a6.69,6.69,0,0,1-4.11,1,8.69,8.69,0,0,1-5.54-3.11c-1.12-1.62-2.5-7.22.19-10.45,2.83-3.42,6.72-4.49,10.27-2.74s4.1.87,4.48,1.68-1.5,3.11-2.43,4.54A28.29,28.29,0,0,0,508.34,212.57Z" transform="translate(-308.89 -5.89)"/><path class="cls-3" d="M514.13,254.71s-.12-22-.68-23.79-9.33-2.13-9.57,2.39c-.19,3.66,2.42,16.4,4.29,25C514.35,257.15,514.13,254.71,514.13,254.71Z" transform="translate(-308.89 -5.89)"/><path class="cls-91" d="M508.34,227.33c-3.8.69-6.72,4.33-2.27,12.27s8.15,15.84,11.64,17.21,16.39,3.46,16.39,3.46l.95-5.21s-11.69-2.06-13.69-5.27-4.5-9.26-5.79-12.49S513.83,226.33,508.34,227.33Z" transform="translate(-308.89 -5.89)"/><path class="cls-92" d="M506.44,256.45l-2.36-9.56-1.76,1,2.36,9.52a59,59,0,0,1,1.72,14.14v8.12l1.76-1v-8.24A58.78,58.78,0,0,0,506.44,256.45Z" transform="translate(-308.89 -5.89)"/><path class="cls-93" d="M502.33,247.91l-23.64-13.84,2.37,9.61a58.66,58.66,0,0,1,1.71,14.08v8.15l23.64,13.78v-8.13a58.55,58.55,0,0,0-1.73-14.14Z" transform="translate(-308.89 -5.89)"/><polygon class="cls-94" points="169.81 228.19 193.44 242.03 195.2 241 171.54 227.18 169.81 228.19"/><polygon class="cls-95" points="169.81 228.19 193.95 241.62 196.6 255.11 193.1 242.04 169.81 228.19"/><polygon class="cls-3" points="60.48 285.29 82.52 298.14 108.32 283.17 86.27 270.33 60.48 285.29"/><path class="cls-96" d="M390.87,306.09a5,5,0,0,1-2.48-.66l-20-11.63a2.81,2.81,0,0,1,0-4.9L387.9,278V267.18a1.06,1.06,0,0,1,2.12,0v11.43a1.06,1.06,0,0,1-.55.93l-20,11.22a.69.69,0,0,0,0,1.21l20,11.62a2.84,2.84,0,0,0,2.86,0l17.33-10.13V264.26a1.06,1.06,0,0,1,2.12,0v29.8a1.07,1.07,0,0,1-.52.91l-17.86,10.44A4.88,4.88,0,0,1,390.87,306.09Z" transform="translate(-308.89 -5.89)"/><path class="cls-37" d="M390.7,305.21a4.18,4.18,0,0,1-2.13-.58l-20-11.62a2.1,2.1,0,0,1,0-3.67l19.86-11.11V267a.36.36,0,0,1,.71,0v11.43a.34.34,0,0,1-.19.31l-20,11.22a1.4,1.4,0,0,0,0,2.44l20,11.62a3.57,3.57,0,0,0,1.78.48,3.52,3.52,0,0,0,1.79-.49l17.68-10.34V264.08a.36.36,0,0,1,.71,0v29.8a.36.36,0,0,1-.17.3l-17.86,10.44A4.26,4.26,0,0,1,390.7,305.21Z" transform="translate(-308.89 -5.89)"/><path class="cls-97" d="M390.61,304.81a4,4,0,0,1-2-.54l-20-11.62a1.83,1.83,0,0,1,0-3.18l20-11.2V266.88a.08.08,0,0,1,.07-.07.08.08,0,0,1,.07.07v11.44a.09.09,0,0,1,0,.06l-20,11.21a1.69,1.69,0,0,0,0,2.94l20,11.62a3.86,3.86,0,0,0,3.85,0l17.83-10.42V264a.07.07,0,1,1,.14,0v29.79l-17.89,10.5A3.94,3.94,0,0,1,390.61,304.81Z" transform="translate(-308.89 -5.89)"/><path class="cls-98" d="M402.1,271.51c.06,1.24-.81,5.29,2.3,4.61s5.05-2.56,7.1-2.68,3.67-1.31,3.55-2.49-1.74-1.25-3.92-1a7.24,7.24,0,0,1-4.24-1.12Z" transform="translate(-308.89 -5.89)"/><path class="cls-99" d="M386.11,246.43c2.92-.38,14.44-2.12,15.43.43s2.24,9.21,3,13.2a52,52,0,0,0,3,8.81l-5.93,3.47s-4.43-12.78-4.8-13.47-11.7-3.73-11.7-3.73Z" transform="translate(-308.89 -5.89)"/><polygon class="cls-100" points="80.62 269.95 80.62 272.11 104.7 258.18 104.7 255.95 80.62 269.95"/><polygon class="cls-101" points="80.63 269.95 80.63 272.11 57.02 258.41 57.02 256.18 80.63 269.95"/><polygon class="cls-102" points="80.62 268.62 80.62 270.79 104.7 256.86 104.7 254.63 80.62 268.62"/><polygon class="cls-103" points="80.63 268.62 80.63 270.79 57.02 257.08 57.02 254.85 80.63 268.62"/><polygon class="cls-104" points="57.02 254.85 80.63 268.62 104.7 254.63 81.08 240.88 57.02 254.85"/><polygon class="cls-105" points="80.47 268 83.5 267.31 104.7 254.63 80.47 268"/><path class="cls-106" d="M415.71,283.44s-2,2.49-1.93,4.24,2.68,1.68,4.36,1.49,5.48.37,7-.12,3.18-1.56,2.8-2.8-2.24-.56-4-1.19a5.35,5.35,0,0,1-2.55-1.86Z" transform="translate(-308.89 -5.89)"/><path class="cls-107" d="M388.41,252.15c-1.87.19-10.77-1.49-10.77-1.49s-.68,8.21,3.17,11.76A16.06,16.06,0,0,0,394,266.65c4.42-.62,23.51-1.15,23.51-1.15s-.83,7.25-1.22,9.6c-.59,3.66-1.32,9.06-1.32,9.06a27.69,27.69,0,0,0,4.65.3c2.49-.07,2.27-.4,2.27-.4s3.27-10.35,4-12.52c1.38-4.15,3.65-8.81,2.9-11.17s-2.41-4.55-7.47-4.86c-4.39-.26-24.71-5.28-24.71-5.28Z" transform="translate(-308.89 -5.89)"/><path class="cls-108" d="M418.26,250.65a9.91,9.91,0,0,0,2.28,0,9.61,9.61,0,0,1,3.72.11,2.61,2.61,0,0,1,1.41,3.59c-.75,2.22-1.78,2.34-3.38,1.84s-5.18-1.39-5.18-1.39Z" transform="translate(-308.89 -5.89)"/><path class="cls-109" d="M380.44,201.8c1.37-5.11,8.84-7.41,12.51-2.43s2.12,11.95.62,12.64-2.3-.63-2.8,1.3a7.78,7.78,0,0,0,.5,4.24l-10.83-2.68s1.74-2.24,1.56-3.8S379.32,206,380.44,201.8Z" transform="translate(-308.89 -5.89)"/><path class="cls-110" d="M381,212.89a16,16,0,0,0,5,2.29,8.45,8.45,0,0,0,4.61,0l.62,2.61a15.1,15.1,0,0,1-6.66-.87c-3.55-1.3-4.29-2.49-4.29-2.49Z" transform="translate(-308.89 -5.89)"/><path class="cls-111" d="M380.32,213.94a12.71,12.71,0,0,1-3.74,1.49c-2.54.56-6.9,1.88-6.41,6.92s4,15.85,4.7,18.84A95.64,95.64,0,0,1,376,251.27s8.29,3.06,14.89,1.94,6.35-3.67,6.35-3.67-.12-22-.68-23.79-1.47-2.55-3-4c-1.23-1.21-2.62-5.41-2.62-5.41a11.49,11.49,0,0,1-5.35-.12A48.54,48.54,0,0,1,380.32,213.94Z" transform="translate(-308.89 -5.89)"/><polygon class="cls-112" points="108.67 244.11 110.41 244.41 109.25 249.44 107.25 248.89 108.67 244.11"/><path class="cls-113" d="M391.46,207.4a1.15,1.15,0,0,0-1.56.68c-2.45,6.19-7.39,4.95-9,1.93-.91-1.74-2.5-7.22.19-10.45,2.83-3.42,6.72-4.48,10.27-2.74s3,4.79,2.05,6.22A28.29,28.29,0,0,0,391.46,207.4Z" transform="translate(-308.89 -5.89)"/><path class="cls-3" d="M392.09,253c5.37-1.21,5.16-3.44,5.16-3.44s-.12-22-.68-23.79c-.06-.19-.12-.37-.19-.54l-9.23,3Z" transform="translate(-308.89 -5.89)"/><path class="cls-114" d="M391.46,222.16c-3.8.69-6.72,4.33-2.27,12.27s8.15,15.84,11.64,17.21,16.39,3.46,16.39,3.46l.95-5.21s-11.69-2.06-13.69-5.27-4.5-9.26-5.79-12.48S397,221.16,391.46,222.16Z" transform="translate(-308.89 -5.89)"/><path class="cls-115" d="M389.56,251.28l-2.36-9.56-1.76,1,2.36,9.52a59.1,59.1,0,0,1,1.72,14.14v8.12l1.76-1v-8.24A58.78,58.78,0,0,0,389.56,251.28Z" transform="translate(-308.89 -5.89)"/><path class="cls-116" d="M385.45,242.74,361.81,228.9l2.37,9.61a58.66,58.66,0,0,1,1.71,14.08v8.15l23.64,13.78v-8.13a58.67,58.67,0,0,0-1.73-14.14Z" transform="translate(-308.89 -5.89)"/><polygon class="cls-117" points="52.93 223.02 76.56 236.86 78.32 235.83 54.66 222.01 52.93 223.02"/><polygon class="cls-118" points="52.93 223.02 77.07 236.45 79.72 249.94 76.22 236.87 52.93 223.02"/><path class="cls-119" d="M427.23,265.13s6.48-1.05,7.53.79,8,23.86,8.64,25.46a6.4,6.4,0,0,0,2.68,3.08s-.77,3.86-5.36,2.81c-1.22-.27-1.51-.65-1.51-.65s-1.11-5-2.81-7.6-5.7-13.68-5.7-13.68L415.32,274Z" transform="translate(-308.89 -5.89)"/><path class="cls-120" d="M438.85,295.52c-.26.32-.75,2.77-.07,3.76a44.26,44.26,0,0,1,2.17,4.49l1.25-.4-.67-3.14a8.28,8.28,0,0,1,3.29-.57c1.64.12,3.9,1.31,5.79.44s2.68-2.18,2-3.31-2.05-.84-3.53-1.19a18.71,18.71,0,0,1-3.6-1.51,2.06,2.06,0,0,1-1.75,2.45C441.54,297.15,438.85,295.52,438.85,295.52Z" transform="translate(-308.89 -5.89)"/><path class="cls-121" d="M455.71,240.82a5.76,5.76,0,0,1,1.72-1c1.78-.57,5.28-2.35,5.28-3.36a12.86,12.86,0,0,0-1.27-3.5s3.43-3.18,3.56-3.5-.45-.76-1.4-.06a35.56,35.56,0,0,1-4.45,2.8l-1.27.19a13,13,0,0,0,1.27-1.72c.19-.44.06-1.21-.45-1.14s-2.09,2.48-2.73,2.92a10.09,10.09,0,0,0-1.84,3.18,14.77,14.77,0,0,1-.89,1.78S454.45,241.84,455.71,240.82Z" transform="translate(-308.89 -5.89)"/><polygon class="cls-122" points="143.88 231.54 144.66 230.64 147.97 234.29 146.99 234.93 143.88 231.54"/><polygon class="cls-3" points="92.25 303.98 114.28 316.83 140.09 301.86 118.03 289.02 92.25 303.98"/><path class="cls-123" d="M422.64,324.78a5,5,0,0,1-2.48-.66l-20-11.63a2.82,2.82,0,0,1,.05-4.9l19.5-10.91V285.87a1.06,1.06,0,0,1,2.12,0V297.3a1.06,1.06,0,0,1-.55.93l-20,11.21a.7.7,0,0,0,0,1.22l20,11.62a2.84,2.84,0,0,0,2.86,0l17.33-10.13V283a1.06,1.06,0,1,1,2.12,0v29.8a1.07,1.07,0,0,1-.52.91L425.15,324.1A4.88,4.88,0,0,1,422.64,324.78Z" transform="translate(-308.89 -5.89)"/><path class="cls-37" d="M422.47,323.9a4.24,4.24,0,0,1-2.14-.58l-20-11.62a2.11,2.11,0,0,1,0-3.67l19.86-11.11V285.69a.35.35,0,0,1,.35-.35.35.35,0,0,1,.35.35v11.43a.35.35,0,0,1-.18.31l-20,11.22a1.37,1.37,0,0,0-.72,1.21,1.41,1.41,0,0,0,.7,1.23l20,11.62a3.57,3.57,0,0,0,1.78.48,3.52,3.52,0,0,0,1.79-.49l17.68-10.34V282.77a.36.36,0,0,1,.71,0v29.8a.35.35,0,0,1-.18.3l-17.85,10.44A4.29,4.29,0,0,1,422.47,323.9Z" transform="translate(-308.89 -5.89)"/><path class="cls-124" d="M422.38,323.49a4,4,0,0,1-2-.53l-20-11.62a1.8,1.8,0,0,1-.91-1.6,1.77,1.77,0,0,1,.94-1.58l20-11.2V285.57a.07.07,0,0,1,.14,0V297a.09.09,0,0,1,0,.06l-20,11.21a1.69,1.69,0,0,0,0,2.94l20,11.62a3.78,3.78,0,0,0,1.92.51,3.83,3.83,0,0,0,1.93-.52l17.83-10.42V282.66a.07.07,0,0,1,.07-.07.08.08,0,0,1,.07.07v29.79L424.39,323A4,4,0,0,1,422.38,323.49Z" transform="translate(-308.89 -5.89)"/><polygon class="cls-125" points="112.39 288.64 112.39 290.8 136.47 276.87 136.47 274.64 112.39 288.64"/><polygon class="cls-126" points="112.39 288.64 112.39 290.8 88.79 277.1 88.79 274.87 112.39 288.64"/><polygon class="cls-127" points="112.39 287.31 112.39 289.48 136.47 275.55 136.47 273.32 112.39 287.31"/><polygon class="cls-128" points="112.39 287.31 112.39 289.48 88.79 275.77 88.79 273.54 112.39 287.31"/><polygon class="cls-129" points="88.79 273.54 112.39 287.31 136.47 273.32 112.85 259.57 88.79 273.54"/><polygon class="cls-130" points="112.23 286.69 115.26 286 136.47 273.32 112.23 286.69"/><path class="cls-131" d="M421.85,283.65c3.14.72,11.88-1.39,15.89-1.71,4.2-.33,10.07-1,10.07-1s.95,14.69,1.14,17a66.86,66.86,0,0,1-.05,7.18c-.07.81.51,3.27,2.94,2.28a73.91,73.91,0,0,1,8.5-2.47c1-.22-5.13-2.16-5.84-4.6-.21-.74-1.5-2-.07-8.11A89.48,89.48,0,0,0,456.38,277c0-1.44,0-4-2.95-4.52s-30.67-3.14-30.67-3.14Z" transform="translate(-308.89 -5.89)"/><path class="cls-132" d="M409,259.76s5,2.42,8.11,2.75,9.42.62,9.42.62,5.24.33,6.09,1,8,4.95,8.74,5.67,1.12,5,1.05,7.92.26,3.6-2.49,4.58-13.45,4.58-23.46.52c-10.65-4.32-11.26-9.3-11.26-11.78C405.22,266.17,409,259.76,409,259.76Z" transform="translate(-308.89 -5.89)"/><path class="cls-133" d="M448.94,303.25c-.26.33-.74,2.77-.06,3.77a43.67,43.67,0,0,1,2.16,4.49l1.25-.4-.67-3.14a8.3,8.3,0,0,1,3.3-.57c1.63.12,3.89,1.31,5.78.44s2.68-2.18,2-3.31-2.06-.84-3.54-1.19a18.71,18.71,0,0,1-3.6-1.51,2.06,2.06,0,0,1-1.75,2.45C451.63,304.89,448.94,303.25,448.94,303.25Z" transform="translate(-308.89 -5.89)"/><path class="cls-134" d="M407,231.15c-1.9,2-4.39,11.78-5.37,13.62s-4.19,6.8-.66,9,10.94,2.82,10.94,2.82-2.36-5.5-2.56-5.5-3.27-1.51-3.27-1.51l3.73-8.9Z" transform="translate(-308.89 -5.89)"/><path class="cls-135" d="M425.18,211.51c1.95,1.55,3.28,7.14,2,10.93s-2.88,4.13-3.53,4.46-2.68,3.66-1.9,5.17-5.3.65-6.81-.59-1.57-1.77-1.57-1.77,1.57-2.42.85-4.19-3.79-8.25,0-12.7A8,8,0,0,1,425.18,211.51Z" transform="translate(-308.89 -5.89)"/><path class="cls-136" d="M413.93,229.38s-3.8-1.63-6.29.59-2,4.52-1.63,8.84c.49,6.55,3.27,13.29,3.53,16.23s-2.23,6.61-2.23,6.61,1.18,1.84,7.79,2.49a31.81,31.81,0,0,0,11.72-1s-.64-7.4-.57-9.36,2-4.91,2.21-8.31.26-8.51-2.29-10.15a38.67,38.67,0,0,1-4.39-3.27,11.63,11.63,0,0,1-4.78-.2A3.89,3.89,0,0,1,413.93,229.38Z" transform="translate(-308.89 -5.89)"/><path class="cls-3" d="M426.25,253.8c.06-2,2-4.91,2.21-8.31.17-3,.24-7.42-1.56-9.49-2.66.17-6.29.9-6.54,3.16a132.37,132.37,0,0,0,.28,19.74c.25,2.09.52,3.86.77,5.25a28.32,28.32,0,0,0,5.41-1S426.18,255.76,426.25,253.8Z" transform="translate(-308.89 -5.89)"/><path class="cls-137" d="M426.17,235.34a4,4,0,0,0-5.7,2.36c-.78,2.81.53,6,4.13,7.59s12,7.66,13.28,8.44,3.28,2.23,5.83,0,12.76-13,12.76-13L453,237s-7.2,7.52-8.83,8.57-3.21,2-3.21,2S428.52,236.52,426.17,235.34Z" transform="translate(-308.89 -5.89)"/><path class="cls-138" d="M427.87,216.29a15.1,15.1,0,0,1-3.08,2.16c-1.24.53-.91,1.51-.78,2.29,0,0-1.51.4-1.84.92s-1,1.5-.26,2.42,2.69,3,1.83,5.63c-1.2,3.62,3.91,6.26,3.91,6.26s-8.78,3.89-14.71,1.14c-5.36-2.49-6.8-7.14-5.3-8.05s4.19-1.38,3.6-9.76c-.38-5.44,4.05-10.09,10.15-9.69C429.24,210.14,427.87,216.29,427.87,216.29Z" transform="translate(-308.89 -5.89)"/><path class="cls-139" d="M421.33,270,419,260.41l-1.76,1,2.35,9.52a58.55,58.55,0,0,1,1.73,14.14v8.12l1.76-1V284A58.78,58.78,0,0,0,421.33,270Z" transform="translate(-308.89 -5.89)"/><path class="cls-140" d="M417.22,261.43l-23.64-13.84L396,257.2a58.66,58.66,0,0,1,1.71,14.08v8.15l23.64,13.78v-8.13a58.67,58.67,0,0,0-1.73-14.14Z" transform="translate(-308.89 -5.89)"/><polygon class="cls-141" points="84.7 241.71 108.33 255.55 110.08 254.52 86.43 240.7 84.7 241.71"/><polygon class="cls-142" points="84.7 241.71 108.83 255.14 111.49 268.63 107.98 255.56 84.7 241.71"/><polygon class="cls-3" points="122.82 322.03 144.86 334.88 170.66 319.91 148.61 307.07 122.82 322.03"/><path class="cls-143" d="M453.22,342.83a5,5,0,0,1-2.49-.66l-20-11.63a2.81,2.81,0,0,1,0-4.9l19.5-10.91V303.92a1.06,1.06,0,0,1,2.12,0v11.43a1.07,1.07,0,0,1-.54.93l-20.05,11.21a.71.71,0,0,0,0,1.22l20,11.62a2.84,2.84,0,0,0,2.86,0L472,330.19V301a1.06,1.06,0,0,1,2.12,0v29.8a1,1,0,0,1-.52.91l-17.86,10.44A4.87,4.87,0,0,1,453.22,342.83Z" transform="translate(-308.89 -5.89)"/><path class="cls-37" d="M453,342a4.18,4.18,0,0,1-2.13-.58l-20-11.62a2.11,2.11,0,0,1,0-3.67L450.77,315V303.74a.36.36,0,0,1,.71,0v11.43a.35.35,0,0,1-.18.31L431.25,326.7a1.4,1.4,0,0,0,0,2.44l20,11.62a3.6,3.6,0,0,0,1.78.48,3.52,3.52,0,0,0,1.79-.49l17.68-10.34V300.82a.36.36,0,0,1,.71,0v29.8a.34.34,0,0,1-.17.3l-17.86,10.44A4.26,4.26,0,0,1,453,342Z" transform="translate(-308.89 -5.89)"/><path class="cls-144" d="M453,341.54a4,4,0,0,1-2-.53l-20-11.62a1.83,1.83,0,0,1,0-3.18L451,315V303.62a.07.07,0,0,1,.07-.07.08.08,0,0,1,.07.07v11.43a.1.1,0,0,1,0,.07l-20,11.21a1.68,1.68,0,0,0-.87,1.46,1.66,1.66,0,0,0,.84,1.47l20,11.63a3.81,3.81,0,0,0,1.92.51,3.89,3.89,0,0,0,1.94-.52l17.82-10.42V300.71a.07.07,0,0,1,.14,0V330.5L455,341A3.93,3.93,0,0,1,453,341.54Z" transform="translate(-308.89 -5.89)"/><polygon class="cls-145" points="142.96 306.69 142.96 308.85 167.04 294.92 167.04 292.69 142.96 306.69"/><polygon class="cls-146" points="142.97 306.69 142.97 308.85 119.37 295.15 119.37 292.92 142.97 306.69"/><polygon class="cls-147" points="142.96 305.36 142.96 307.53 167.04 293.6 167.04 291.37 142.96 305.36"/><polygon class="cls-148" points="142.97 305.36 142.97 307.53 119.37 293.82 119.37 291.59 142.97 305.36"/><polygon class="cls-149" points="119.37 291.59 142.97 305.36 167.04 291.37 143.43 277.62 119.37 291.59"/><polygon class="cls-150" points="142.81 304.74 145.84 304.05 167.04 291.37 142.81 304.74"/><path class="cls-151" d="M451.9,288l-2.36-9.56-1.76,1,2.36,9.52a59,59,0,0,1,1.72,14.14v8.12l1.76-1v-8.24A58.27,58.27,0,0,0,451.9,288Z" transform="translate(-308.89 -5.89)"/><path class="cls-152" d="M447.79,279.48l-23.63-13.84,2.37,9.61a59.17,59.17,0,0,1,1.71,14.08v8.15l23.63,13.78v-8.13A58.55,58.55,0,0,0,450.14,289Z" transform="translate(-308.89 -5.89)"/><polygon class="cls-153" points="115.27 259.76 138.9 273.6 140.66 272.57 117.01 258.75 115.27 259.76"/><polygon class="cls-154" points="115.27 259.76 139.41 273.19 142.06 286.68 138.56 273.61 115.27 259.76"/><polygon class="cls-3" points="7.55 316.14 29.59 329 55.39 314.03 33.34 301.19 7.55 316.14"/><path class="cls-155" d="M338,337a4.93,4.93,0,0,1-2.49-.67l-20-11.62a2.81,2.81,0,0,1,0-4.9L335,308.85V298a1.06,1.06,0,1,1,2.12,0v11.43a1.07,1.07,0,0,1-.54.93L316.5,321.61a.71.71,0,0,0,0,1.22l20,11.62a2.84,2.84,0,0,0,2.86,0l17.33-10.13V295.12a1.06,1.06,0,0,1,2.12,0v29.79a1,1,0,0,1-.52.92l-17.86,10.44A5,5,0,0,1,338,337Z" transform="translate(-308.89 -5.89)"/><path class="cls-37" d="M337.77,336.06a4.17,4.17,0,0,1-2.13-.57l-20-11.62a2.08,2.08,0,0,1-1.05-1.85,2.06,2.06,0,0,1,1.08-1.82l19.86-11.12V297.86a.36.36,0,0,1,.71,0v11.43a.35.35,0,0,1-.18.31l-20,11.21a1.41,1.41,0,0,0,0,2.45l20,11.62a3.6,3.6,0,0,0,1.78.48,3.52,3.52,0,0,0,1.79-.49l17.68-10.34V294.94a.36.36,0,0,1,.71,0v29.79a.34.34,0,0,1-.17.31l-17.86,10.44A4.25,4.25,0,0,1,337.77,336.06Z" transform="translate(-308.89 -5.89)"/><path class="cls-156" d="M337.68,335.66a4,4,0,0,1-2-.53l-20-11.62a1.83,1.83,0,0,1-.91-1.6,1.81,1.81,0,0,1,.94-1.58l20-11.2V297.74a.07.07,0,0,1,.07-.07.08.08,0,0,1,.07.07v11.43a.07.07,0,0,1,0,.06l-20,11.22a1.68,1.68,0,0,0,0,2.93l20,11.63a3.87,3.87,0,0,0,3.86,0l17.82-10.42V294.82a.07.07,0,1,1,.14,0v29.8l-17.89,10.5A4,4,0,0,1,337.68,335.66Z" transform="translate(-308.89 -5.89)"/><polygon class="cls-157" points="27.69 300.81 27.69 302.97 51.77 289.04 51.77 286.81 27.69 300.81"/><polygon class="cls-158" points="27.7 300.81 27.7 302.97 4.1 289.26 4.1 287.04 27.7 300.81"/><polygon class="cls-159" points="27.69 299.48 27.69 301.64 51.77 287.71 51.77 285.49 27.69 299.48"/><polygon class="cls-160" points="27.7 299.48 27.7 301.64 4.1 287.94 4.1 285.71 27.7 299.48"/><polygon class="cls-161" points="4.1 285.71 27.7 299.48 51.77 285.49 28.16 271.74 4.1 285.71"/><polygon class="cls-162" points="27.54 298.86 30.57 298.17 51.77 285.49 27.54 298.86"/><path class="cls-163" d="M336.63,282.14l-2.36-9.57-1.76,1,2.36,9.52a59,59,0,0,1,1.72,14.14v8.12l1.76-1v-8.23A58.27,58.27,0,0,0,336.63,282.14Z" transform="translate(-308.89 -5.89)"/><path class="cls-164" d="M332.52,273.6l-23.63-13.84,2.37,9.61A59.17,59.17,0,0,1,313,283.45v8.15l23.63,13.78v-8.13a58.55,58.55,0,0,0-1.73-14.14Z" transform="translate(-308.89 -5.89)"/><polygon class="cls-165" points="0 253.87 23.63 267.72 25.39 266.69 1.74 252.87 0 253.87"/><polygon class="cls-166" points="0 253.87 24.14 267.31 26.8 280.8 23.29 267.73 0 253.87"/><path class="cls-167" d="M370.5,246.11c1.95,1.54,3.27,7.13,2,10.93s-2.88,4.12-3.54,4.45-2.68,3.67-1.89,5.17-5.31.66-6.81-.59-1.57-1.76-1.57-1.76,1.57-2.43.85-4.19-3.8-8.25,0-12.7A8,8,0,0,1,370.5,246.11Z" transform="translate(-308.89 -5.89)"/><path class="cls-168" d="M386.82,330c4.59,1.05,5.36-2.81,5.36-2.81a6.4,6.4,0,0,1-2.68-3.08l-.14-.39-5,2.18c.61,1.86,1,3.45,1,3.45S385.6,329.69,386.82,330Z" transform="translate(-308.89 -5.89)"/><path class="cls-169" d="M386.82,330c4.59,1.05,5.36-2.81,5.36-2.81a6.4,6.4,0,0,1-2.68-3.08l-.14-.39-5,2.18c.61,1.86,1,3.45,1,3.45S385.6,329.69,386.82,330Z" transform="translate(-308.89 -5.89)"/><path class="cls-170" d="M380.86,298.61c-1.05-1.84-8.29-2.87-8.29-2.87l-14.06-.08,2.91,11L376.8,308s6.06,16.86,6.53,18.28l7-2.09C389.18,320.91,381.86,300.35,380.86,298.61Z" transform="translate(-308.89 -5.89)"/><path class="cls-171" d="M385,328.21c-.26.32-.75,2.77-.07,3.76a44.26,44.26,0,0,1,2.17,4.49l1.25-.4-.67-3.14a8.28,8.28,0,0,1,3.29-.57c1.64.12,3.9,1.31,5.79.44s2.68-2.18,2-3.31-2.05-.84-3.53-1.19a18.71,18.71,0,0,1-3.6-1.51,2.06,2.06,0,0,1-1.75,2.45C387.64,329.84,385,328.21,385,328.21Z" transform="translate(-308.89 -5.89)"/><polygon class="cls-3" points="39.17 334.83 61.21 347.69 87.01 332.71 64.96 319.88 39.17 334.83"/><path class="cls-172" d="M369.56,355.64a4.92,4.92,0,0,1-2.48-.67l-20-11.62a2.81,2.81,0,0,1,0-4.9l19.5-10.91V316.73a1.06,1.06,0,0,1,2.12,0v11.43a1.06,1.06,0,0,1-.55.93l-20,11.21a.7.7,0,0,0,0,1.22l20,11.62a2.84,2.84,0,0,0,2.86,0L388.33,343V313.81a1.06,1.06,0,1,1,2.12,0V343.6a1.07,1.07,0,0,1-.52.92L372.07,355A5,5,0,0,1,369.56,355.64Z" transform="translate(-308.89 -5.89)"/><path class="cls-37" d="M369.39,354.75a4.17,4.17,0,0,1-2.13-.57l-20-11.62a2.08,2.08,0,0,1-1.05-1.85,2.06,2.06,0,0,1,1.08-1.82l19.86-11.12V316.55a.36.36,0,0,1,.71,0V328a.35.35,0,0,1-.18.31l-20,11.21a1.41,1.41,0,0,0,0,2.45l20,11.62a3.57,3.57,0,0,0,1.78.48,3.52,3.52,0,0,0,1.79-.49l17.68-10.34V313.63a.36.36,0,0,1,.71,0v29.79a.37.37,0,0,1-.17.31l-17.86,10.44A4.25,4.25,0,0,1,369.39,354.75Z" transform="translate(-308.89 -5.89)"/><path class="cls-173" d="M369.3,354.35a4,4,0,0,1-2-.53l-20-11.62a1.83,1.83,0,0,1,0-3.18l20-11.2V316.43a.08.08,0,0,1,.07-.07.08.08,0,0,1,.08.07v11.43a.07.07,0,0,1,0,.06l-20,11.22a1.68,1.68,0,0,0,0,2.93l20,11.63a3.91,3.91,0,0,0,1.92.51,3.83,3.83,0,0,0,1.93-.52l17.83-10.43V313.51a.07.07,0,0,1,.14,0v29.8l-17.89,10.5A4,4,0,0,1,369.3,354.35Z" transform="translate(-308.89 -5.89)"/><polygon class="cls-174" points="59.31 319.5 59.31 321.66 83.39 307.73 83.39 305.5 59.31 319.5"/><polygon class="cls-175" points="59.32 319.5 59.32 321.66 35.72 307.95 35.72 305.73 59.32 319.5"/><polygon class="cls-176" points="59.31 318.17 59.31 320.33 83.39 306.4 83.39 304.18 59.31 318.17"/><polygon class="cls-177" points="59.32 318.17 59.32 320.33 35.72 306.63 35.72 304.4 59.32 318.17"/><polygon class="cls-178" points="35.72 304.4 59.32 318.17 83.39 304.18 59.77 290.43 35.72 304.4"/><polygon class="cls-179" points="59.16 317.55 62.19 316.86 83.39 304.18 59.16 317.55"/><path class="cls-180" d="M397.94,340.14a75.58,75.58,0,0,1,8.5-2.46c1-.22-5.13-2.16-5.84-4.6-.06-.23-.24-.52-.4-1l-5,.21c0,2-.18,5-.22,5.57C394.93,338.68,395.51,341.14,397.94,340.14Z" transform="translate(-308.89 -5.89)"/><path class="cls-181" d="M395,335.94c-.26.33-.74,2.77-.06,3.77a43.67,43.67,0,0,1,2.16,4.49l1.25-.41-.67-3.13a8.3,8.3,0,0,1,3.3-.57c1.63.12,3.89,1.31,5.78.44s2.68-2.18,2-3.32-2.06-.83-3.54-1.18a19.41,19.41,0,0,1-3.6-1.51A2.06,2.06,0,0,1,400,337C397.73,337.58,395,335.94,395,335.94Z" transform="translate(-308.89 -5.89)"/><path class="cls-182" d="M353.09,263.84c-1.9,2-4.39,11.78-5.37,13.62s-4.19,6.8-.65,9S358,289.24,358,289.24s-2.36-5.5-2.56-5.5-3.27-1.51-3.27-1.51l3.73-8.9Z" transform="translate(-308.89 -5.89)"/><path class="cls-183" d="M402.48,309.73c0-1.44,0-4-3-4.52-2-.36-15.95-4.45-24.59-6.43-2.3-.53-1.45-3.3-2.67-3.42-.94-.09-18.09-1-18.09-1s-8.55,15.52,10.91,20.93c8.6,2.4,14.74-.37,18.75-.69,4.2-.33,10.07-1,10.07-1s.49,18.7.49,19.62l6.35-1C400.4,331.2,402.48,311.17,402.48,309.73Z" transform="translate(-308.89 -5.89)"/><path class="cls-3" d="M381.28,310.94c-6.17-.36-15.8-.95-19.13-4-2.76-2.57-1.92-9.79-1.55-12.17l-6.42-.34s-8.55,15.52,10.91,20.94c8.6,2.39,14.74-.38,18.75-.7,4.2-.33,10.07-1,10.07-1l1.75-2.83S387.46,311.3,381.28,310.94Z" transform="translate(-308.89 -5.89)"/><path class="cls-184" d="M360,262.07s-3.8-1.63-6.29.59-2,4.52-1.63,8.84c.49,6.55,3.27,13.29,3.53,16.23S353,298.22,353,298.22s1.18,1.84,7.79,2.49,13.81-3.12,13.81-3.12-2.32-9.14-2.25-11.1,2-4.91,2.21-8.31.26-8.51-2.29-10.15a38.67,38.67,0,0,1-4.39-3.27,11.84,11.84,0,0,1-4.78-.2A3.89,3.89,0,0,1,360,262.07Z" transform="translate(-308.89 -5.89)"/><path class="cls-3" d="M372.35,286.49c.06-2,2-4.91,2.21-8.31.17-3,.24-7.41-1.55-9.49h0c-2.66.18-5.59.54-6.54,3.79-.86,2.92-.39,13.51.28,19.12.2,1.71,1,6.09,1.38,8.41a33.55,33.55,0,0,0,6.48-2.41S372.28,288.45,372.35,286.49Z" transform="translate(-308.89 -5.89)"/><path class="cls-185" d="M373.18,250.89s-1.87,3.32-3.12,3.84-1.06,3-.93,3.79a14.07,14.07,0,0,1-.19,3.46c-1,3.43-2,4.19-4.07,12.6a46.21,46.21,0,0,0-.6,8.82c0,3.07-11.7-1.08-11.7-4.89,0-2.45,1.42-7.33,2-10.92a120.39,120.39,0,0,0,1.35-12.71c.34-5.44,2.94-11.24,9-10.84C372.84,244.57,373.18,250.89,373.18,250.89Z" transform="translate(-308.89 -5.89)"/><path class="cls-186" d="M391.07,299.69a9.16,9.16,0,0,0,2.13.39,9.1,9.1,0,0,1,3.46.74,2.49,2.49,0,0,1,.7,3.61c-1.08,1.94-2.07,1.88-3.48,1.12s-4.61-2.19-4.61-2.19Z" transform="translate(-308.89 -5.89)"/><polygon class="cls-187" points="81.64 293.07 83.22 293.65 81.26 298.15 79.48 297.29 81.64 293.07"/><path class="cls-188" d="M370.94,268.4c-3.67,0-6.2,3.78-3.4,12s4,15.33,7.06,17.21,14.73,6.08,14.73,6.08l1.78-4.71s-10.56-3.95-11.89-7.3A91.54,91.54,0,0,1,376,279C375.34,275.74,376.25,268.42,370.94,268.4Z" transform="translate(-308.89 -5.89)"/><path class="cls-189" d="M368.25,300.83l-2.36-9.57-1.76,1,2.36,9.52A59,59,0,0,1,368.21,316v8.12l1.76-1v-8.23A58.71,58.71,0,0,0,368.25,300.83Z" transform="translate(-308.89 -5.89)"/><path class="cls-190" d="M364.14,292.29l-23.63-13.84,2.36,9.61a58.61,58.61,0,0,1,1.72,14.08v8.15l23.63,13.78v-8.13a58.69,58.69,0,0,0-1.73-14.15Z" transform="translate(-308.89 -5.89)"/><polygon class="cls-191" points="31.62 272.56 55.25 286.4 57.01 285.38 33.36 271.56 31.62 272.56"/><polygon class="cls-192" points="31.62 272.56 55.76 286 58.41 299.49 54.91 286.42 31.62 272.56"/><ellipse class="cls-3" cx="596.99" cy="294.19" rx="8.92" ry="21.7" transform="translate(-152.93 786.73) rotate(-74.73)"/><path class="cls-193" d="M586,282.48l5.2.42s1.37,4.77.16,5.7a42.77,42.77,0,0,1-5,2.65c-2.65,1.45-4.91,1.94-6.59.9s-1.35-2.21.74-3.61S585.77,285.29,586,282.48Z" transform="translate(-308.89 -5.89)"/><path class="cls-194" d="M609.48,291.14l4.89-.1s.09,4.15.09,5.51-1,1.9-2,2.85a5.64,5.64,0,0,1-4.08,2c-1.84.14-4.34-.43-3.7-2.29s3.44-3.39,3.78-4.4C608.85,293.57,609.48,291.14,609.48,291.14Z" transform="translate(-308.89 -5.89)"/><path class="cls-195" d="M585,284l7.11.53s2.25-18.46,2.57-21.23-.73-10.56-.73-10.56l3.21-20.21s5.24,27.66,5.57,29.61,5.33,30.71,5.33,30.71l7.07.13s-1-16.59-1.84-22.28a138.23,138.23,0,0,1-1.23-21.46c.24-5.67-.16-18-1.2-22.39S609,216.4,609,216.4l-22.52-3s-3.48,13.22-2.84,24.9,1.08,17.31,1.24,24.7S585,284,585,284Z" transform="translate(-308.89 -5.89)"/><path class="cls-196" d="M566.75,158.24a14,14,0,0,0-2.32-2c-1.28-.84-3.61-2.5-4.41-4.66s-1.84-4.34-1.36-5.18,3.69-2,4.89-.26,4.81,5.82,5.21,7.06a7.31,7.31,0,0,0,1.36,2.3Z" transform="translate(-308.89 -5.89)"/><path class="cls-197" d="M564.85,158.05l4.74-3.79,12.07,13.1a75.09,75.09,0,0,0,6.5,6.18l6.06,4.29-7.68,9s-6.2-8.86-8.74-12.45C576.68,172.78,564.85,158.05,564.85,158.05Z" transform="translate(-308.89 -5.89)"/><path class="cls-198" d="M593.42,176.54c-2.33-.3-5.18.91-6.71,5.9s.4,15.59,0,20.36S585,217.64,585,217.64l25.41,3.93s-.83-12,.61-16.75,6.14-14.32,5.18-17-2.37-3.77-5.13-5.7a52.74,52.74,0,0,0-7.52-3.77Z" transform="translate(-308.89 -5.89)"/><polygon class="cls-199" points="283.88 180.91 289.09 178.91 292.18 182 296.24 179.58 290.48 196.84 283.28 195.99 283.88 180.91"/><polygon class="cls-200" points="289.09 178.91 290.18 179.94 289.39 180.79 288.33 205.3 286.87 211.84 285.72 205.36 288.12 180.73 287.64 179.46 289.09 178.91"/><path class="cls-201" d="M616.87,188c-1-2.66-2.36-3.77-5.13-5.7a53.49,53.49,0,0,0-8.17-3.89l-10.4-3c-2.32-.3-5.26,2.06-6.78,7.05s.21,14.36-.19,19.13-3.68,23.66-3.68,23.66l3.74.51a7.13,7.13,0,0,0,7.84-5.23,42.18,42.18,0,0,0,1.09-10.7c0-8.08-3.07-24.71.16-29.15,1.58-2.17,7.83-2.26,9.45-1.45s2.3.94.16,4.6c-3.07,5.25-8.37,17-8,26a62,62,0,0,0,1.24,12.08,7.11,7.11,0,0,0,7.4,5.37l7.2-.5s-2-15.36-1.13-21.39C612.41,200.46,617.83,190.62,616.87,188Z" transform="translate(-308.89 -5.89)"/><path class="cls-202" d="M597.34,160.8c-3.18.18-5.54,1.61-6.31,7.22s-.42,8.25.78,9,2.69.34,3.65,2.11a4.07,4.07,0,0,1,.5,2.32c-.05.64,1.9,3.08,1.9,3.08s3.61-1.36,4.78-1.82a7.63,7.63,0,0,0,3.06-1.92s-1.81-3.11-1.75-4.43,2.89-6.16,1.75-9.93S600.17,160.65,597.34,160.8Z" transform="translate(-308.89 -5.89)"/><path class="cls-203" d="M592.57,161.11a2.45,2.45,0,0,0,.72,4.38,7,7,0,0,1,3.35,1.68,14.66,14.66,0,0,0,3.13,2.78s1.76-1.36,3-.2-.48,4-.48,4l1.79,2.14s3.53-4.86,2.92-9C606.09,160.57,597.82,157.59,592.57,161.11Z" transform="translate(-308.89 -5.89)"/><path class="cls-3" d="M605.59,227.26l7.2-.5s-2-15.36-1.13-21.39c.75-4.91,6.17-14.75,5.21-17.4-.53-1.48-8-2.49-8.52.12-1.37,6.38-2.9,10.66-2.1,21.15.52,6.74-.92,13.85-1.49,18A5.75,5.75,0,0,0,605.59,227.26Z" transform="translate(-308.89 -5.89)"/><path class="cls-204" d="M610.73,220.6a8.84,8.84,0,0,0-5.24,8.28c-.06,1.7,0,3.67,1.71,4s2.75-1.18,3.14-2.58,2.55-4.41,3-5.16a5.47,5.47,0,0,0,.59-1.91Z" transform="translate(-308.89 -5.89)"/><path class="cls-205" d="M610.18,185.21c-2,1.17-2.95,5.32-.38,8.92s9.83,12.25,9.83,12.25L610,220.92l4.81,3.39s10.08-11.67,10.8-12.73,2.48-3.21,1.36-5.32-8.09-15.85-9.29-18.1C615.78,184.7,613.32,183.37,610.18,185.21Z" transform="translate(-308.89 -5.89)"/><path class="cls-3" d="M596.16,227.17s-4.28,19.61-4.28,23.33,1.21,10.25.65,14.37c-.42,3.05-1.81,14-2.51,19.5l2.11.15s2.24-18.46,2.57-21.23-.73-10.57-.73-10.57l3.21-20.2Z" transform="translate(-308.89 -5.89)"/></g></g></svg>