<svg id="Layer_1" data-name="Layer 1" xmlns="http://www.w3.org/2000/svg" xmlns:xlink="http://www.w3.org/1999/xlink" viewBox="0 0 191.72 191.72"><defs><style>.cls-1{fill:url(#radial-gradient);}.cls-2{fill:#fff;}</style><radialGradient id="radial-gradient" cx="51.95" cy="30.75" r="231.35" gradientTransform="matrix(1, 0, 0, -1, -21.02, 219.89)" gradientUnits="userSpaceOnUse"><stop offset="0" stop-color="#fec053"/><stop offset="0.33" stop-color="#f2203e"/><stop offset="0.65" stop-color="#b729a8"/><stop offset="1" stop-color="#5342d6"/></radialGradient></defs><title>InstagramIcon</title><g id="objects"><rect class="cls-1" width="191.72" height="191.72" rx="31.22"/><path class="cls-2" d="M150.88,188.82h-68a45,45,0,0,1-44.92-45v-68A45,45,0,0,1,82.88,30.89h68A45,45,0,0,1,195.8,75.82v68A45,45,0,0,1,150.88,188.82ZM82.88,44.5A31.43,31.43,0,0,0,51.49,75.82v68a31.43,31.43,0,0,0,31.39,31.4h68a31.43,31.43,0,0,0,31.39-31.4v-68a31.43,31.43,0,0,0-31.39-31.4Z" transform="translate(-21.02 -14)"/><path class="cls-2" d="M116.88,150.27a40.42,40.42,0,1,1,40.42-40.45A40.42,40.42,0,0,1,116.88,150.27Zm0-67.3a26.89,26.89,0,1,0,26.89,26.89v0A26.92,26.92,0,0,0,116.88,83Z" transform="translate(-21.02 -14)"/><path class="cls-2" d="M168.74,67.13A9.71,9.71,0,1,1,159,57.41a9.71,9.71,0,0,1,9.71,9.72Z" transform="translate(-21.02 -14)"/></g></svg>