<svg id="Layer_1" data-name="Layer 1" xmlns="http://www.w3.org/2000/svg" xmlns:xlink="http://www.w3.org/1999/xlink" viewBox="0 0 125 125"><defs><style>.cls-1{fill:url(#linear-gradient);}.cls-2{fill:#f5f9fd;}.cls-3{fill:#a9c9dd;}.cls-4{fill:#c8daea;}</style><linearGradient id="linear-gradient" x1="94.67" y1="-128.68" x2="94.67" y2="-253.68" gradientTransform="matrix(1, 0, 0, -1, -32.17, 160.32)" gradientUnits="userSpaceOnUse"><stop offset="0" stop-color="#39b0e3"/><stop offset="1" stop-color="#1d93d2"/></linearGradient></defs><title>TelegramIcon</title><rect class="cls-1" width="125" height="125" rx="23"/><path class="cls-2" d="M127.77,37.76,52.18,66.26a3.19,3.19,0,0,0,.26,6l26.44,7.42a2.51,2.51,0,0,1,1,.51L111,105.34a5.09,5.09,0,0,0,8.28-2.9l11.89-61.79a2.54,2.54,0,0,0-2-3A2.48,2.48,0,0,0,127.77,37.76Z" transform="translate(-32.17 -9.57)"/><path class="cls-3" d="M84.14,101.55l9.48-10.21-11.18-9L80,102.54A3.8,3.8,0,0,0,84.14,101.55Z" transform="translate(-32.17 -9.57)"/><path class="cls-4" d="M114.39,50.88,70.79,77.46l6.89,22.6A3.8,3.8,0,0,0,80,102.54l2.41-20.21,32.72-30.44a.64.64,0,0,0-.77-1Z" transform="translate(-32.17 -9.57)"/></svg>